<svg width="25" height="24" viewBox="0 0 25 24" fill="none" xmlns="http://www.w3.org/2000/svg">
<path d="M21.5 8.65588H21.5001C21.5644 8.6559 21.6283 8.64301 21.6883 8.61771C21.7482 8.59239 21.8034 8.55502 21.8502 8.50723C21.8971 8.45942 21.9348 8.40213 21.9607 8.3384C21.9866 8.27465 22 8.20601 22 8.13646V8.13633V5.07769V5.07749C22 4.9663 21.9657 4.85884 21.9031 4.77038C21.8407 4.68205 21.7537 4.61764 21.6558 4.58442L21.6555 4.58432L12.6558 1.52576L21.5 8.65588ZM21.5 8.65588H20.5H20V9.15588V16.4806V16.8323L20.331 16.9512C20.8155 17.1252 21.237 17.4484 21.5365 17.8783C21.8359 18.3081 21.9983 18.823 22 19.3523C22 19.3525 22 19.3527 22 19.3529L22 21.3905V21.3906C22 21.4601 21.9866 21.5288 21.9607 21.5925C21.9348 21.6563 21.8971 21.7135 21.8502 21.7613C21.8034 21.8091 21.7482 21.8465 21.6883 21.8718L21.8827 22.3325L21.6883 21.8718C21.6283 21.8971 21.5644 21.91 21.5001 21.91H21.5H3.5H3.49987C3.43558 21.91 3.37168 21.8971 3.31174 21.8718L3.11765 22.3316L3.31173 21.8718C3.25177 21.8465 3.19665 21.8091 3.14978 21.7613C3.10288 21.7135 3.06519 21.6562 3.03931 21.5925C3.01342 21.5288 2.99998 21.4601 3 21.3906V21.3905V19.3521C3.00174 18.8229 3.16409 18.3081 3.46352 17.8783L3.05516 17.5938L3.46352 17.8783C3.76301 17.4484 4.1845 17.1252 4.66899 16.9512L5 16.8323V16.4806V9.15588V8.65588H4.5H3.5H3.49987C3.43558 8.6559 3.37168 8.64301 3.31174 8.61771C3.25177 8.59239 3.19665 8.55501 3.14978 8.50722C3.10288 8.45941 3.06519 8.40213 3.03931 8.3384C3.01342 8.27465 2.99998 8.20601 3 8.13646V8.13633L3 5.07769L3 5.07749C2.99996 4.9663 3.03431 4.85884 3.09686 4.77038C3.15931 4.68205 3.24626 4.61764 3.34419 4.58442L3.34448 4.58432M21.5 8.65588L3.34448 4.58432M3.34448 4.58432L12.3442 1.52576M3.34448 4.58432L12.3442 1.52576M12.3442 1.52576L12.3445 1.52568C12.4455 1.49144 12.5545 1.49144 12.6555 1.52568L12.3442 1.52576ZM20.5 20.8709H21V20.3709V19.3514V19.3509C20.9996 18.9512 20.8438 18.5661 20.5638 18.2806C20.2834 17.9948 19.9012 17.8322 19.5005 17.8318H19.5H5.5H5.49949C5.09877 17.8322 4.71657 17.9948 4.43623 18.2806L4.79319 18.6307L4.43623 18.2806C4.1562 18.5661 4.00039 18.9512 4 19.3509V19.3514V20.3709V20.8709H4.5H20.5ZM6 16.2927V16.7927H6.5H8.5H9V16.2927V9.15588V8.65588H8.5H6.5H6V9.15588V16.2927ZM10 16.2927V16.7927H10.5H14.5H15V16.2927V9.15588V8.65588H14.5H10.5H10V9.15588V16.2927ZM16 16.2927V16.7927H16.5H18.5H19V16.2927V9.15588V8.65588H18.5H16.5H16V9.15588V16.2927ZM4 7.11679V7.61679H4.5H20.5H21V7.11679V5.81248V5.45433L20.6609 5.33908L12.6609 2.61994L12.5 2.56525L12.3391 2.61994L4.33909 5.33908L4 5.45433V5.81248V7.11679Z" fill="black" stroke="black"/>
</svg>
