<svg width="14" height="15" viewBox="0 0 14 15" fill="none" xmlns="http://www.w3.org/2000/svg">
<path fill-rule="evenodd" clip-rule="evenodd" d="M0.333344 12.833C0.333344 13.5694 0.930297 14.1663 1.66668 14.1663H10.6095L13.6667 11.1092V2.16634C13.6667 1.42996 13.0697 0.833008 12.3333 0.833008H1.66668C0.930297 0.833008 0.333344 1.42996 0.333344 2.16634V12.833ZM1.66668 2.16634H12.3333V9.49967H10.3333C9.59696 9.49967 9.00001 10.0966 9.00001 10.833V12.833H1.66668V2.16634ZM10.3333 10.833H12.0572L10.3333 12.5569V10.833ZM3.66668 9.49967V10.833H7.66668V9.49967H3.66668ZM3.66668 8.16634V6.83301H10.3333V8.16634H3.66668ZM3.66668 4.16634V5.49967H10.3333V4.16634H3.66668Z" fill="#51C5FC"/>
</svg>
