<svg width="16" height="17" viewBox="0 0 16 17" fill="none" xmlns="http://www.w3.org/2000/svg">
<path d="M16 4.19201C16.0006 4.08672 15.9804 3.98235 15.9406 3.88488C15.9008 3.78741 15.8421 3.69876 15.768 3.62401L12.376 0.232013C12.3012 0.157868 12.2126 0.0992079 12.1151 0.0593963C12.0176 0.0195847 11.9133 -0.000595342 11.808 1.33714e-05C11.7027 -0.000595342 11.5983 0.0195847 11.5009 0.0593963C11.4034 0.0992079 11.3147 0.157868 11.24 0.232013L8.976 2.49601L0.232013 11.24C0.157868 11.3147 0.0992079 11.4034 0.0593963 11.5009C0.0195847 11.5983 -0.000595342 11.7027 1.33714e-05 11.808V15.2C1.33714e-05 15.4122 0.0842987 15.6156 0.234328 15.7657C0.384356 15.9157 0.587839 16 0.800012 16H4.19201C4.30395 16.0061 4.41592 15.9886 4.52066 15.9486C4.6254 15.9086 4.72057 15.8471 4.8 15.768L13.496 7.024L15.768 4.8C15.841 4.72247 15.9005 4.63323 15.944 4.53601C15.9517 4.47224 15.9517 4.40777 15.944 4.34401C15.9477 4.30677 15.9477 4.26925 15.944 4.23201L16 4.19201ZM3.86401 14.4H1.60001V12.136L9.544 4.19201L11.808 6.456L3.86401 14.4ZM12.936 5.328L10.672 3.06401L11.808 1.93601L14.064 4.19201L12.936 5.328Z" fill="#51C5FC"/>
</svg>
