<svg width="88" height="20" viewBox="0 0 88 20" fill="none" xmlns="http://www.w3.org/2000/svg">
<path d="M5.61523 15.1953C4.7168 15.1953 3.90299 14.974 3.17383 14.5312C2.45117 14.0885 1.88802 13.4733 1.48438 12.6855C1.08073 11.8913 0.878906 11.0026 0.878906 10.0195V9.59961C0.878906 8.58398 1.07422 7.66927 1.46484 6.85547C1.86198 6.04167 2.41211 5.40365 3.11523 4.94141C3.81836 4.47266 4.58008 4.23828 5.40039 4.23828C6.68294 4.23828 7.69857 4.67773 8.44727 5.55664C9.20247 6.42904 9.58008 7.6237 9.58008 9.14062V9.79492H2.04102V10.0195C2.04102 11.2174 2.38281 12.2168 3.06641 13.0176C3.75651 13.8118 4.6224 14.209 5.66406 14.209C6.28906 14.209 6.83919 14.0951 7.31445 13.8672C7.79622 13.6393 8.23242 13.2747 8.62305 12.7734L9.35547 13.3301C8.49609 14.5736 7.24935 15.1953 5.61523 15.1953ZM5.40039 5.23438C4.52148 5.23438 3.7793 5.55664 3.17383 6.20117C2.57487 6.8457 2.21029 7.71159 2.08008 8.79883H8.41797V8.67188C8.38542 7.65625 8.0957 6.82943 7.54883 6.19141C7.00195 5.55339 6.28581 5.23438 5.40039 5.23438ZM14.5312 9.99023V15H11.6016V0.78125H17.1484C18.2161 0.78125 19.1536 0.976562 19.9609 1.36719C20.7747 1.75781 21.3997 2.31445 21.8359 3.03711C22.2721 3.75326 22.4902 4.57031 22.4902 5.48828C22.4902 6.88151 22.0117 7.98177 21.0547 8.78906C20.1042 9.58984 18.7858 9.99023 17.0996 9.99023H14.5312ZM14.5312 7.61719H17.1484C17.9232 7.61719 18.5124 7.4349 18.916 7.07031C19.3262 6.70573 19.5312 6.1849 19.5312 5.50781C19.5312 4.8112 19.3262 4.24805 18.916 3.81836C18.5059 3.38867 17.9395 3.16732 17.2168 3.1543H14.5312V7.61719ZM30.332 15C30.2018 14.7461 30.1074 14.4303 30.0488 14.0527C29.3652 14.8145 28.4766 15.1953 27.3828 15.1953C26.3477 15.1953 25.4883 14.8958 24.8047 14.2969C24.1276 13.6979 23.7891 12.9427 23.7891 12.0312C23.7891 10.9115 24.2025 10.0521 25.0293 9.45312C25.8626 8.85417 27.0638 8.55143 28.6328 8.54492H29.9316V7.93945C29.9316 7.45117 29.8047 7.06055 29.5508 6.76758C29.3034 6.47461 28.9095 6.32812 28.3691 6.32812C27.8939 6.32812 27.5195 6.44206 27.2461 6.66992C26.9792 6.89779 26.8457 7.21029 26.8457 7.60742H24.0234C24.0234 6.99544 24.2122 6.42904 24.5898 5.9082C24.9674 5.38737 25.5013 4.98047 26.1914 4.6875C26.8815 4.38802 27.6562 4.23828 28.5156 4.23828C29.8177 4.23828 30.8496 4.56706 31.6113 5.22461C32.3796 5.87565 32.7637 6.79362 32.7637 7.97852V12.5586C32.7702 13.5612 32.9102 14.3197 33.1836 14.834V15H30.332ZM27.998 13.0371C28.4147 13.0371 28.7988 12.946 29.1504 12.7637C29.502 12.5749 29.7624 12.3242 29.9316 12.0117V10.1953H28.877C27.4642 10.1953 26.7122 10.6836 26.6211 11.6602L26.6113 11.8262C26.6113 12.1777 26.735 12.4674 26.9824 12.6953C27.2298 12.9232 27.5684 13.0371 27.998 13.0371ZM38.7207 11.0059L40.6738 4.43359H43.7012L39.4531 16.6406L39.2188 17.1973C38.5872 18.5775 37.5456 19.2676 36.0938 19.2676C35.6836 19.2676 35.2669 19.2057 34.8438 19.082V16.9434L35.2734 16.9531C35.8073 16.9531 36.2044 16.8717 36.4648 16.709C36.7318 16.5462 36.9401 16.276 37.0898 15.8984L37.4219 15.0293L33.7207 4.43359H36.7578L38.7207 11.0059ZM55.1758 1.80664H50.3027V15H49.1016V1.80664H44.2383V0.78125H55.1758V1.80664ZM58.5156 15H57.3438V4.43359H58.5156V15ZM57.1387 1.37695C57.1387 1.1556 57.2103 0.970052 57.3535 0.820312C57.4967 0.664062 57.6921 0.585938 57.9395 0.585938C58.1868 0.585938 58.3822 0.664062 58.5254 0.820312C58.6751 0.970052 58.75 1.1556 58.75 1.37695C58.75 1.59831 58.6751 1.78385 58.5254 1.93359C58.3822 2.08333 58.1868 2.1582 57.9395 2.1582C57.6921 2.1582 57.4967 2.08333 57.3535 1.93359C57.2103 1.78385 57.1387 1.59831 57.1387 1.37695ZM62.7637 4.43359L62.8027 6.15234C63.1934 5.51432 63.6816 5.03581 64.2676 4.7168C64.8535 4.39779 65.5046 4.23828 66.2207 4.23828C67.8874 4.23828 68.9453 4.92188 69.3945 6.28906C69.7721 5.63151 70.2767 5.12695 70.9082 4.77539C71.5397 4.41732 72.2363 4.23828 72.998 4.23828C75.2637 4.23828 76.4193 5.47526 76.4648 7.94922V15H75.293V8.03711C75.2865 7.0931 75.0814 6.39323 74.6777 5.9375C74.2806 5.48177 73.6296 5.25391 72.7246 5.25391C71.8848 5.26693 71.1751 5.54036 70.5957 6.07422C70.0163 6.60156 69.694 7.24609 69.6289 8.00781V15H68.457V7.94922C68.4505 7.04427 68.2357 6.37044 67.8125 5.92773C67.3958 5.47852 66.7513 5.25391 65.8789 5.25391C65.1432 5.25391 64.5117 5.46549 63.9844 5.88867C63.457 6.30534 63.0664 6.92708 62.8125 7.75391V15H61.6406V4.43359H62.7637ZM83.5254 15.1953C82.627 15.1953 81.8132 14.974 81.084 14.5312C80.3613 14.0885 79.7982 13.4733 79.3945 12.6855C78.9909 11.8913 78.7891 11.0026 78.7891 10.0195V9.59961C78.7891 8.58398 78.9844 7.66927 79.375 6.85547C79.7721 6.04167 80.3223 5.40365 81.0254 4.94141C81.7285 4.47266 82.4902 4.23828 83.3105 4.23828C84.5931 4.23828 85.6087 4.67773 86.3574 5.55664C87.1126 6.42904 87.4902 7.6237 87.4902 9.14062V9.79492H79.9512V10.0195C79.9512 11.2174 80.293 12.2168 80.9766 13.0176C81.6667 13.8118 82.5326 14.209 83.5742 14.209C84.1992 14.209 84.7493 14.0951 85.2246 13.8672C85.7064 13.6393 86.1426 13.2747 86.5332 12.7734L87.2656 13.3301C86.4062 14.5736 85.1595 15.1953 83.5254 15.1953ZM83.3105 5.23438C82.4316 5.23438 81.6895 5.55664 81.084 6.20117C80.485 6.8457 80.1204 7.71159 79.9902 8.79883H86.3281V8.67188C86.2956 7.65625 86.0059 6.82943 85.459 6.19141C84.9121 5.55339 84.196 5.23438 83.3105 5.23438Z" fill="black" fill-opacity="0.87"/>
</svg>
