<svg width="157" height="34" viewBox="0 0 157 34" fill="none" xmlns="http://www.w3.org/2000/svg">
<path d="M9.18945 26.3516C7.57227 26.3516 6.10742 25.9531 4.79492 25.1562C3.49414 24.3594 2.48047 23.252 1.75391 21.834C1.02734 20.4043 0.664062 18.8047 0.664062 17.0352V16.2793C0.664062 14.4512 1.01562 12.8047 1.71875 11.3398C2.43359 9.875 3.42383 8.72656 4.68945 7.89453C5.95508 7.05078 7.32617 6.62891 8.80273 6.62891C11.1113 6.62891 12.9395 7.41992 14.2871 9.00195C15.6465 10.5723 16.3262 12.7227 16.3262 15.4531V16.6309H2.75586V17.0352C2.75586 19.1914 3.37109 20.9902 4.60156 22.4316C5.84375 23.8613 7.40234 24.5762 9.27734 24.5762C10.4023 24.5762 11.3926 24.3711 12.248 23.9609C13.1152 23.5508 13.9004 22.8945 14.6035 21.9922L15.9219 22.9941C14.375 25.2324 12.1309 26.3516 9.18945 26.3516ZM8.80273 8.42188C7.2207 8.42188 5.88477 9.00195 4.79492 10.1621C3.7168 11.3223 3.06055 12.8809 2.82617 14.8379H14.2344V14.6094C14.1758 12.7812 13.6543 11.293 12.6699 10.1445C11.6855 8.99609 10.3965 8.42188 8.80273 8.42188ZM25.2383 16.9824V26H19.9648V0.40625H29.9492C31.8711 0.40625 33.5586 0.757812 35.0117 1.46094C36.4766 2.16406 37.6016 3.16602 38.3867 4.4668C39.1719 5.75586 39.5645 7.22656 39.5645 8.87891C39.5645 11.3867 38.7031 13.3672 36.9805 14.8203C35.2695 16.2617 32.8965 16.9824 29.8613 16.9824H25.2383ZM25.2383 12.7109H29.9492C31.3438 12.7109 32.4043 12.3828 33.1309 11.7266C33.8691 11.0703 34.2383 10.1328 34.2383 8.91406C34.2383 7.66016 33.8691 6.64648 33.1309 5.87305C32.3926 5.09961 31.373 4.70117 30.0723 4.67773H25.2383V12.7109ZM53.6797 26C53.4453 25.543 53.2754 24.9746 53.1699 24.2949C51.9395 25.666 50.3398 26.3516 48.3711 26.3516C46.5078 26.3516 44.9609 25.8125 43.7305 24.7344C42.5117 23.6562 41.9023 22.2969 41.9023 20.6562C41.9023 18.6406 42.6465 17.0938 44.1348 16.0156C45.6348 14.9375 47.7969 14.3926 50.6211 14.3809H52.959V13.291C52.959 12.4121 52.7305 11.709 52.2734 11.1816C51.8281 10.6543 51.1191 10.3906 50.1465 10.3906C49.291 10.3906 48.6172 10.5957 48.125 11.0059C47.6445 11.416 47.4043 11.9785 47.4043 12.6934H42.3242C42.3242 11.5918 42.6641 10.5723 43.3438 9.63477C44.0234 8.69727 44.9844 7.96484 46.2266 7.4375C47.4688 6.89844 48.8633 6.62891 50.4102 6.62891C52.7539 6.62891 54.6113 7.2207 55.9824 8.4043C57.3652 9.57617 58.0566 11.2285 58.0566 13.3613V21.6055C58.0684 23.4102 58.3203 24.7754 58.8125 25.7012V26H53.6797ZM49.4785 22.4668C50.2285 22.4668 50.9199 22.3027 51.5527 21.9746C52.1855 21.6348 52.6543 21.1836 52.959 20.6211V17.3516H51.0605C48.5176 17.3516 47.1641 18.2305 47 19.9883L46.9824 20.2871C46.9824 20.9199 47.2051 21.4414 47.6504 21.8516C48.0957 22.2617 48.7051 22.4668 49.4785 22.4668ZM68.7793 18.8105L72.2949 6.98047H77.7441L70.0977 28.9531L69.6758 29.9551C68.5391 32.4395 66.6641 33.6816 64.0508 33.6816C63.3125 33.6816 62.5625 33.5703 61.8008 33.3477V29.498L62.5742 29.5156C63.5352 29.5156 64.25 29.3691 64.7188 29.0762C65.1992 28.7832 65.5742 28.2969 65.8438 27.6172L66.4414 26.0527L59.7793 6.98047H65.2461L68.7793 18.8105ZM98.3984 2.25195H89.627V26H87.4648V2.25195H78.7109V0.40625H98.3984V2.25195ZM104.41 26H102.301V6.98047H104.41V26ZM101.932 1.47852C101.932 1.08008 102.061 0.746094 102.318 0.476562C102.576 0.195312 102.928 0.0546875 103.373 0.0546875C103.818 0.0546875 104.17 0.195312 104.428 0.476562C104.697 0.746094 104.832 1.08008 104.832 1.47852C104.832 1.87695 104.697 2.21094 104.428 2.48047C104.17 2.75 103.818 2.88477 103.373 2.88477C102.928 2.88477 102.576 2.75 102.318 2.48047C102.061 2.21094 101.932 1.87695 101.932 1.47852ZM112.057 6.98047L112.127 10.0742C112.83 8.92578 113.709 8.06445 114.764 7.49023C115.818 6.91602 116.99 6.62891 118.279 6.62891C121.279 6.62891 123.184 7.85938 123.992 10.3203C124.672 9.13672 125.58 8.22852 126.717 7.5957C127.854 6.95117 129.107 6.62891 130.479 6.62891C134.557 6.62891 136.637 8.85547 136.719 13.3086V26H134.609V13.4668C134.598 11.7676 134.229 10.5078 133.502 9.6875C132.787 8.86719 131.615 8.45703 129.986 8.45703C128.475 8.48047 127.197 8.97266 126.154 9.93359C125.111 10.8828 124.531 12.043 124.414 13.4141V26H122.305V13.3086C122.293 11.6797 121.906 10.4668 121.145 9.66992C120.395 8.86133 119.234 8.45703 117.664 8.45703C116.34 8.45703 115.203 8.83789 114.254 9.59961C113.305 10.3496 112.602 11.4688 112.145 12.957V26H110.035V6.98047H112.057ZM149.428 26.3516C147.811 26.3516 146.346 25.9531 145.033 25.1562C143.732 24.3594 142.719 23.252 141.992 21.834C141.266 20.4043 140.902 18.8047 140.902 17.0352V16.2793C140.902 14.4512 141.254 12.8047 141.957 11.3398C142.672 9.875 143.662 8.72656 144.928 7.89453C146.193 7.05078 147.564 6.62891 149.041 6.62891C151.35 6.62891 153.178 7.41992 154.525 9.00195C155.885 10.5723 156.564 12.7227 156.564 15.4531V16.6309H142.994V17.0352C142.994 19.1914 143.609 20.9902 144.84 22.4316C146.082 23.8613 147.641 24.5762 149.516 24.5762C150.641 24.5762 151.631 24.3711 152.486 23.9609C153.354 23.5508 154.139 22.8945 154.842 21.9922L156.16 22.9941C154.613 25.2324 152.369 26.3516 149.428 26.3516ZM149.041 8.42188C147.459 8.42188 146.123 9.00195 145.033 10.1621C143.955 11.3223 143.299 12.8809 143.064 14.8379H154.473V14.6094C154.414 12.7812 153.893 11.293 152.908 10.1445C151.924 8.99609 150.635 8.42188 149.041 8.42188Z" fill="white"/>
</svg>
