<svg width="14" height="16" viewBox="0 0 14 16" fill="none" xmlns="http://www.w3.org/2000/svg">
<path d="M8.73866 7.09005C9.00496 6.72346 9.1647 6.29038 9.20022 5.83868C9.23574 5.38698 9.14567 4.93426 8.93995 4.53055C8.73424 4.12685 8.42089 3.78789 8.03456 3.55116C7.64823 3.31443 7.20396 3.18913 6.75086 3.18913C6.29777 3.18913 5.8535 3.31443 5.46716 3.55116C5.08083 3.78789 4.76749 4.12685 4.56177 4.53055C4.35606 4.93426 4.26598 5.38698 4.30151 5.83868C4.33703 6.29038 4.49677 6.72346 4.76306 7.09005C4.42528 7.30532 4.12454 7.57383 3.87253 7.88517C3.80675 7.97026 3.75837 8.06749 3.73016 8.17128C3.70195 8.27508 3.69446 8.38341 3.70812 8.4901C3.72178 8.59679 3.75632 8.69975 3.80977 8.79309C3.86322 8.88643 3.93453 8.96833 4.01963 9.03411C4.10473 9.0999 4.20195 9.14827 4.30574 9.17648C4.40954 9.20469 4.51788 9.21218 4.62457 9.19852C4.73125 9.18486 4.83421 9.15032 4.92755 9.09687C5.02089 9.04343 5.10279 8.97212 5.16857 8.88702C5.36276 8.64019 5.61024 8.44046 5.89251 8.30277C6.17477 8.16508 6.48451 8.09299 6.79857 8.0919C7.11263 8.09299 7.42237 8.16508 7.70463 8.30277C7.9869 8.44046 8.23438 8.64019 8.42857 8.88702C8.5034 8.97927 8.59796 9.05358 8.70528 9.10449C8.8126 9.1554 8.92997 9.18161 9.04876 9.18121C9.19782 9.18053 9.34368 9.13796 9.46971 9.05836C9.59573 8.97876 9.69685 8.86534 9.76151 8.73104C9.82618 8.59673 9.85179 8.44696 9.83542 8.2988C9.81905 8.15064 9.76137 8.01007 9.66895 7.89312C9.40562 7.57561 9.09121 7.3042 8.73866 7.09005ZM6.75881 6.50961C6.58878 6.50949 6.42254 6.45937 6.28078 6.36547C6.13903 6.27157 6.02802 6.13804 5.9616 5.98152C5.89517 5.825 5.87625 5.6524 5.90719 5.4852C5.93813 5.31801 6.01757 5.16361 6.13562 5.04123C6.25367 4.91885 6.4051 4.8339 6.57108 4.79695C6.73705 4.76001 6.91022 4.7727 7.06903 4.83345C7.22784 4.89419 7.36528 5.00031 7.46423 5.13859C7.56317 5.27687 7.61926 5.4412 7.62549 5.61112C7.62977 5.72758 7.61052 5.84371 7.56888 5.95256C7.52724 6.06141 7.46408 6.16075 7.38317 6.24462C7.30227 6.3285 7.20527 6.3952 7.09799 6.44073C6.99071 6.48626 6.87535 6.50969 6.75881 6.50961ZM13.4855 6.11205C13.3739 4.95031 12.9633 3.83727 12.2938 2.88133C11.6243 1.92539 10.7186 1.15911 9.66497 0.657121C8.61136 0.155132 7.4457 -0.0654623 6.28152 0.0168191C5.11733 0.0991005 3.99429 0.481453 3.02175 1.12665C2.18623 1.68533 1.48483 2.42213 0.96791 3.28412C0.450995 4.1461 0.131405 5.11187 0.0320984 6.11205C-0.0653178 7.10568 0.0596684 8.10853 0.397989 9.04785C0.73631 9.98717 1.27948 10.8394 1.98809 11.5427L6.20223 15.7648C6.27615 15.8393 6.36409 15.8985 6.46098 15.9389C6.55787 15.9792 6.6618 16 6.76677 16C6.87173 16 6.97566 15.9792 7.07255 15.9389C7.16944 15.8985 7.25738 15.8393 7.3313 15.7648L11.5295 11.5427C12.2381 10.8394 12.7813 9.98717 13.1196 9.04785C13.458 8.10853 13.5829 7.10568 13.4855 6.11205ZM10.4164 10.4216L6.75881 14.0792L3.10126 10.4216C2.56224 9.88255 2.14935 9.23077 1.89226 8.51312C1.63517 7.79547 1.54027 7.02977 1.61439 6.27107C1.68898 5.50068 1.93384 4.7565 2.33124 4.09232C2.72865 3.42814 3.26868 2.86057 3.91228 2.43064C4.75586 1.87027 5.74607 1.57135 6.75881 1.57135C7.77155 1.57135 8.76177 1.87027 9.60534 2.43064C10.247 2.85891 10.7858 3.42397 11.1831 4.08524C11.5805 4.74651 11.8264 5.48756 11.9032 6.25517C11.9798 7.01644 11.8861 7.7852 11.6289 8.50579C11.3718 9.22639 10.9576 9.88078 10.4164 10.4216Z" fill="white"/>
</svg>
