<svg width="24" height="24" viewBox="0 0 24 24" fill="none" xmlns="http://www.w3.org/2000/svg">
<path d="M2.83078 17.0153C2.72898 16.9179 2.60893 16.8415 2.47752 16.7905C2.2169 16.6834 1.92457 16.6834 1.66395 16.7905C1.53255 16.8415 1.4125 16.9179 1.31069 17.0153C1.21323 17.1171 1.13684 17.2372 1.08589 17.3686C1.00391 17.5635 0.981513 17.7784 1.02152 17.9861C1.06153 18.1937 1.16215 18.3849 1.31069 18.5354C1.41474 18.63 1.53422 18.706 1.66395 18.7602C1.79209 18.8168 1.93064 18.8461 2.07074 18.8461C2.21083 18.8461 2.34938 18.8168 2.47752 18.7602C2.60725 18.706 2.72673 18.63 2.83078 18.5354C2.97932 18.3849 3.07994 18.1937 3.11995 17.9861C3.15996 17.7784 3.13756 17.5635 3.05559 17.3686C3.00464 17.2372 2.92824 17.1171 2.83078 17.0153ZM6.35269 8.14098H21.3395C21.6234 8.14098 21.8957 8.02819 22.0965 7.82744C22.2972 7.62668 22.41 7.3544 22.41 7.07049C22.41 6.78658 22.2972 6.51429 22.0965 6.31354C21.8957 6.11278 21.6234 6 21.3395 6H6.35269C6.06878 6 5.79649 6.11278 5.59574 6.31354C5.39498 6.51429 5.2822 6.78658 5.2822 7.07049C5.2822 7.3544 5.39498 7.62668 5.59574 7.82744C5.79649 8.02819 6.06878 8.14098 6.35269 8.14098ZM2.83078 11.6629C2.68025 11.5143 2.48909 11.4137 2.28142 11.3737C2.07376 11.3337 1.8589 11.3561 1.66395 11.4381C1.53422 11.4923 1.41474 11.5683 1.31069 11.6629C1.21323 11.7647 1.13684 11.8847 1.08589 12.0161C1.02925 12.1443 1 12.2828 1 12.4229C1 12.563 1.02925 12.7016 1.08589 12.8297C1.1401 12.9594 1.21613 13.0789 1.31069 13.183C1.41474 13.2775 1.53422 13.3536 1.66395 13.4078C1.79209 13.4644 1.93064 13.4937 2.07074 13.4937C2.21083 13.4937 2.34938 13.4644 2.47752 13.4078C2.60725 13.3536 2.72673 13.2775 2.83078 13.183C2.92534 13.0789 3.00137 12.9594 3.05559 12.8297C3.11222 12.7016 3.14147 12.563 3.14147 12.4229C3.14147 12.2828 3.11222 12.1443 3.05559 12.0161C3.00464 11.8847 2.92824 11.7647 2.83078 11.6629ZM21.3395 11.3524H6.35269C6.06878 11.3524 5.79649 11.4652 5.59574 11.666C5.39498 11.8667 5.2822 12.139 5.2822 12.4229C5.2822 12.7068 5.39498 12.9791 5.59574 13.1799C5.79649 13.3806 6.06878 13.4934 6.35269 13.4934H21.3395C21.6234 13.4934 21.8957 13.3806 22.0965 13.1799C22.2972 12.9791 22.41 12.7068 22.41 12.4229C22.41 12.139 22.2972 11.8667 22.0965 11.666C21.8957 11.4652 21.6234 11.3524 21.3395 11.3524ZM2.83078 6.31044C2.72898 6.21298 2.60893 6.13659 2.47752 6.08564C2.28257 6.00366 2.06771 5.98126 1.86005 6.02127C1.65239 6.06128 1.46123 6.1619 1.31069 6.31044C1.21613 6.41449 1.1401 6.53398 1.08589 6.6637C1.02925 6.79184 1 6.93039 1 7.07049C1 7.21058 1.02925 7.34914 1.08589 7.47727C1.1401 7.607 1.21613 7.72648 1.31069 7.83053C1.41474 7.92509 1.53422 8.00112 1.66395 8.05534C1.8589 8.13731 2.07376 8.15971 2.28142 8.1197C2.48909 8.07969 2.68025 7.97907 2.83078 7.83053C2.92534 7.72648 3.00137 7.607 3.05559 7.47727C3.11222 7.34914 3.14147 7.21058 3.14147 7.07049C3.14147 6.93039 3.11222 6.79184 3.05559 6.6637C3.00137 6.53398 2.92534 6.41449 2.83078 6.31044ZM21.3395 16.7049H6.35269C6.06878 16.7049 5.79649 16.8177 5.59574 17.0184C5.39498 17.2192 5.2822 17.4915 5.2822 17.7754C5.2822 18.0593 5.39498 18.3316 5.59574 18.5323C5.79649 18.7331 6.06878 18.8459 6.35269 18.8459H21.3395C21.6234 18.8459 21.8957 18.7331 22.0965 18.5323C22.2972 18.3316 22.41 18.0593 22.41 17.7754C22.41 17.4915 22.2972 17.2192 22.0965 17.0184C21.8957 16.8177 21.6234 16.7049 21.3395 16.7049Z" fill="black"/>
</svg>
