<svg width="17" height="17" viewBox="0 0 17 17" fill="none" xmlns="http://www.w3.org/2000/svg">
<path d="M15.956 6.54L14.444 6.036L15.156 4.612C15.2282 4.46295 15.2523 4.29517 15.2251 4.13182C15.1979 3.96847 15.1206 3.81759 15.004 3.7L13.3 1.996C13.1818 1.87767 13.0295 1.79937 12.8644 1.7721C12.6994 1.74484 12.53 1.76998 12.38 1.844L10.956 2.556L10.452 1.044C10.3988 0.886396 10.2977 0.749303 10.163 0.651801C10.0282 0.554299 9.86635 0.501238 9.7 0.500003H7.3C7.13229 0.49957 6.96868 0.551858 6.8323 0.649476C6.69592 0.747095 6.59367 0.885106 6.54 1.044L6.036 2.556L4.612 1.844C4.46295 1.77183 4.29517 1.74769 4.13182 1.77491C3.96847 1.80214 3.81759 1.87939 3.7 1.996L1.996 3.7C1.87767 3.81821 1.79937 3.97054 1.7721 4.13557C1.74484 4.30059 1.76998 4.47001 1.844 4.62L2.556 6.044L1.044 6.548C0.886396 6.60123 0.749303 6.70226 0.651801 6.83705C0.554299 6.97183 0.501238 7.13365 0.500003 7.3V9.7C0.49957 9.86771 0.551858 10.0313 0.649476 10.1677C0.747095 10.3041 0.885106 10.4063 1.044 10.46L2.556 10.964L1.844 12.388C1.77183 12.5371 1.74769 12.7048 1.77491 12.8682C1.80214 13.0315 1.87939 13.1824 1.996 13.3L3.7 15.004C3.81821 15.1223 3.97054 15.2006 4.13557 15.2279C4.30059 15.2552 4.47001 15.23 4.62 15.156L6.044 14.444L6.548 15.956C6.60167 16.1149 6.70392 16.2529 6.8403 16.3505C6.97668 16.4481 7.14029 16.5004 7.308 16.5H9.708C9.87571 16.5004 10.0393 16.4481 10.1757 16.3505C10.3121 16.2529 10.4143 16.1149 10.468 15.956L10.972 14.444L12.396 15.156C12.5441 15.2264 12.7102 15.2495 12.8719 15.2223C13.0336 15.1951 13.1831 15.1189 13.3 15.004L15.004 13.3C15.1223 13.1818 15.2006 13.0295 15.2279 12.8644C15.2552 12.6994 15.23 12.53 15.156 12.38L14.444 10.956L15.956 10.452C16.1136 10.3988 16.2507 10.2977 16.3482 10.163C16.4457 10.0282 16.4988 9.86635 16.5 9.7V7.3C16.5004 7.13229 16.4481 6.96868 16.3505 6.8323C16.2529 6.69592 16.1149 6.59367 15.956 6.54ZM14.9 9.124L13.94 9.444C13.7192 9.51561 13.5167 9.63438 13.3464 9.79208C13.1762 9.94978 13.0423 10.1426 12.954 10.3573C12.8657 10.5719 12.8251 10.8032 12.8352 11.035C12.8452 11.2669 12.9055 11.4938 13.012 11.7L13.468 12.612L12.588 13.492L11.7 13.012C11.4948 12.9098 11.2701 12.8528 11.041 12.845C10.812 12.8372 10.5839 12.8787 10.3723 12.9667C10.1606 13.0547 9.97034 13.1871 9.81433 13.3551C9.65833 13.523 9.54022 13.7225 9.468 13.94L9.148 14.9H7.876L7.556 13.94C7.48439 13.7192 7.36562 13.5167 7.20792 13.3464C7.05022 13.1762 6.85737 13.0423 6.64274 12.954C6.42811 12.8657 6.19684 12.8251 5.96498 12.8352C5.73312 12.8452 5.50621 12.9055 5.3 13.012L4.388 13.468L3.508 12.588L3.988 11.7C4.09448 11.4938 4.15482 11.2669 4.16484 11.035C4.17486 10.8032 4.13432 10.5719 4.04603 10.3573C3.95775 10.1426 3.82382 9.94978 3.65356 9.79208C3.48329 9.63438 3.28076 9.51561 3.06 9.444L2.1 9.124V7.876L3.06 7.556C3.28076 7.48439 3.48329 7.36562 3.65356 7.20792C3.82382 7.05022 3.95775 6.85737 4.04603 6.64274C4.13432 6.42811 4.17486 6.19684 4.16484 5.96498C4.15482 5.73312 4.09448 5.50621 3.988 5.3L3.532 4.412L4.412 3.532L5.3 3.988C5.50621 4.09448 5.73312 4.15482 5.96498 4.16484C6.19684 4.17486 6.42811 4.13432 6.64274 4.04603C6.85737 3.95775 7.05022 3.82382 7.20792 3.65356C7.36562 3.48329 7.48439 3.28076 7.556 3.06L7.876 2.1H9.124L9.444 3.06C9.51561 3.28076 9.63438 3.48329 9.79208 3.65356C9.94978 3.82382 10.1426 3.95775 10.3573 4.04603C10.5719 4.13432 10.8032 4.17486 11.035 4.16484C11.2669 4.15482 11.4938 4.09448 11.7 3.988L12.612 3.532L13.492 4.412L13.012 5.3C12.9098 5.50516 12.8528 5.72988 12.845 5.95895C12.8372 6.18803 12.8787 6.4161 12.9667 6.62775C13.0547 6.83939 13.1871 7.02966 13.3551 7.18566C13.523 7.34167 13.7225 7.45978 13.94 7.532L14.9 7.852V9.124ZM8.5 5.3C7.8671 5.3 7.24841 5.48768 6.72218 5.8393C6.19594 6.19092 5.78579 6.69069 5.54359 7.27541C5.30139 7.86014 5.23802 8.50355 5.36149 9.12429C5.48496 9.74503 5.78973 10.3152 6.23726 10.7627C6.68479 11.2103 7.25497 11.515 7.87571 11.6385C8.49645 11.762 9.13986 11.6986 9.72459 11.4564C10.3093 11.2142 10.8091 10.8041 11.1607 10.2778C11.5123 9.75159 11.7 9.1329 11.7 8.5C11.7 7.65131 11.3629 6.83738 10.7627 6.23726C10.1626 5.63714 9.34869 5.3 8.5 5.3ZM8.5 10.1C8.18355 10.1 7.87421 10.0062 7.61109 9.83035C7.34797 9.65454 7.14289 9.40465 7.02179 9.11229C6.90069 8.81993 6.86901 8.49823 6.93074 8.18786C6.99248 7.87749 7.14487 7.59239 7.36863 7.36863C7.59239 7.14487 7.87749 6.99248 8.18786 6.93074C8.49823 6.86901 8.81993 6.90069 9.11229 7.02179C9.40465 7.14289 9.65454 7.34797 9.83035 7.61109C10.0062 7.87421 10.1 8.18355 10.1 8.5C10.1 8.92435 9.93143 9.33131 9.63137 9.63137C9.33131 9.93143 8.92435 10.1 8.5 10.1Z" fill="#51C5FC"/>
</svg>
