<svg width="25" height="24" viewBox="0 0 25 24" fill="none" xmlns="http://www.w3.org/2000/svg">
<path d="M16.9814 11.9821C17.6533 11.4004 18.1923 10.681 18.5618 9.87258C18.9312 9.06422 19.1224 8.18584 19.1224 7.29706C19.1224 5.62698 18.4589 4.02529 17.278 2.84437C16.0971 1.66344 14.4954 1 12.8253 1C11.1552 1 9.55353 1.66344 8.3726 2.84437C7.19167 4.02529 6.52824 5.62698 6.52824 7.29706C6.52823 8.18584 6.71942 9.06422 7.08883 9.87258C7.45825 10.681 7.99724 11.4004 8.66923 11.9821C6.90623 12.7804 5.41046 14.0696 4.36076 15.6955C3.31106 17.3214 2.75185 19.2153 2.75 21.1506C2.75 21.4846 2.88269 21.8049 3.11887 22.0411C3.35506 22.2773 3.6754 22.41 4.00941 22.41C4.34343 22.41 4.66376 22.2773 4.89995 22.0411C5.13614 21.8049 5.26882 21.4846 5.26882 21.1506C5.26882 19.1465 6.06495 17.2245 7.48206 15.8074C8.89918 14.3902 10.8212 13.5941 12.8253 13.5941C14.8294 13.5941 16.7514 14.3902 18.1685 15.8074C19.5856 17.2245 20.3818 19.1465 20.3818 21.1506C20.3818 21.4846 20.5145 21.8049 20.7506 22.0411C20.9868 22.2773 21.3072 22.41 21.6412 22.41C21.9752 22.41 22.2955 22.2773 22.5317 22.0411C22.7679 21.8049 22.9006 21.4846 22.9006 21.1506C22.8987 19.2153 22.3395 17.3214 21.2898 15.6955C20.2401 14.0696 18.7444 12.7804 16.9814 11.9821ZM12.8253 11.0753C12.078 11.0753 11.3475 10.8537 10.7262 10.4385C10.1049 10.0234 9.62063 9.43331 9.33466 8.74293C9.04869 8.05254 8.97387 7.29287 9.11966 6.55996C9.26544 5.82706 9.62528 5.15384 10.1537 4.62544C10.6821 4.09705 11.3553 3.73721 12.0882 3.59142C12.8211 3.44564 13.5808 3.52046 14.2712 3.80642C14.9615 4.09239 15.5516 4.57666 15.9668 5.19798C16.3819 5.81931 16.6035 6.54979 16.6035 7.29706C16.6035 8.29911 16.2055 9.26012 15.4969 9.96867C14.7884 10.6772 13.8273 11.0753 12.8253 11.0753Z" fill="black"/>
</svg>
