<svg width="30" height="17" viewBox="0 0 30 17" fill="none" xmlns="http://www.w3.org/2000/svg">
<path d="M29.959 5.00281C30.0441 4.66294 29.9957 4.30437 29.8232 3.99751C29.383 3.25364 28.7963 2.60174 28.0968 2.07923C27.3973 1.55671 26.5987 1.17386 25.7469 0.952643C24.8951 0.731425 24.0068 0.676195 23.133 0.790121C22.2592 0.904048 21.4171 1.18489 20.6551 1.61653L17.7349 3.25676L10.9437 0.148257C10.7506 0.0508439 10.5363 0 10.3189 0C10.1014 0 9.88716 0.0508439 9.69408 0.148257L5.61936 2.43664C5.41799 2.54977 5.2498 2.71133 5.13089 2.90588C5.01198 3.10043 4.94634 3.32144 4.94024 3.54777C4.93367 3.77577 4.98774 4.00156 5.09722 4.2032C5.20669 4.40484 5.36785 4.57549 5.56503 4.69857L10.0472 7.44993L7.68389 8.77269L1.1915 9.5399C0.930509 9.57134 0.684502 9.67589 0.483346 9.84086C0.28219 10.0058 0.134535 10.2241 0.0583087 10.4692C-0.0179177 10.7144 -0.0194379 10.9758 0.0539326 11.2217C0.127303 11.4676 0.272409 11.6876 0.471634 11.8547L5.2798 15.9024C5.91281 16.4908 6.72348 16.865 7.59186 16.9699C8.46025 17.0747 9.34021 16.9045 10.1016 16.4844L29.2799 5.8097C29.4434 5.72707 29.5879 5.61293 29.7046 5.47422C29.8214 5.3355 29.9079 5.17512 29.959 5.00281ZM8.86556 14.2622C8.60465 14.402 8.30379 14.4544 8.00929 14.4114C7.71479 14.3684 7.44297 14.2323 7.23567 14.0241L4.65501 11.868L8.36301 11.4315C8.54522 11.4087 8.72081 11.3502 8.87914 11.2595L13.4428 8.70656C13.6461 8.59228 13.8156 8.42863 13.9346 8.23158C14.0536 8.03452 14.1182 7.81079 14.1219 7.58221C14.1247 7.35518 14.0675 7.13127 13.9557 6.93203C13.8439 6.7328 13.6813 6.56494 13.4836 6.44463L9.00138 3.68004L10.4954 2.8467L17.2866 5.91552C17.4797 6.01293 17.694 6.06378 17.9114 6.06378C18.1289 6.06378 18.3432 6.01293 18.5362 5.91552L22.0133 3.95782C22.7259 3.56893 23.542 3.39757 24.3558 3.46597C25.1695 3.53438 25.9434 3.83939 26.577 4.34143L8.86556 14.2622Z" fill="black"/>
</svg>
