<svg width="25" height="24" viewBox="0 0 25 24" fill="none" xmlns="http://www.w3.org/2000/svg">
<path d="M18.9949 7.49958L18.6784 7.81264L18.9528 8.16323C19.7884 9.23104 20.3567 10.4832 20.6102 11.8152C20.8636 13.1473 20.7949 14.5206 20.4098 15.8207C20.0246 17.1208 19.3342 18.31 18.3961 19.289C17.458 20.2681 16.2995 21.0087 15.017 21.449C13.7346 21.8894 12.3654 22.0167 11.0238 21.8204C9.68209 21.6241 8.40681 21.1099 7.30427 20.3206C6.20173 19.5313 5.30388 18.4898 4.68561 17.283C4.06733 16.0762 3.74656 14.7391 3.75003 13.3832L3.75003 13.3813C3.74768 11.4936 4.38011 9.65994 5.54565 8.17506L5.82092 7.82437L5.50396 7.51085L4.46907 6.48722C4.46898 6.48713 4.46889 6.48704 4.4688 6.48695C4.34961 6.36845 4.28233 6.20749 4.28174 6.03941C4.28115 5.87121 4.34741 5.70966 4.46593 5.5903C4.58445 5.47095 4.74553 5.40356 4.91373 5.40297C5.0813 5.40238 5.24226 5.46813 5.36148 5.5858L6.384 6.61956L6.69529 6.93427L7.04542 6.66342C8.53533 5.51083 10.3657 4.88548 12.2494 4.88548C14.1331 4.88548 15.9635 5.51083 17.4534 6.66342L17.8036 6.93429L18.1149 6.61954L19.126 5.59717C19.1263 5.59689 19.1266 5.5966 19.1269 5.59632C19.245 5.47866 19.4049 5.41258 19.5716 5.41258C19.7388 5.41258 19.8991 5.47898 20.0173 5.59717C20.1355 5.71536 20.2019 5.87567 20.2019 6.04282C20.2019 6.20956 20.1358 6.36949 20.0181 6.4876C20.0179 6.48789 20.0176 6.48817 20.0173 6.48846L18.9949 7.49958ZM11.4628 12.5051L11.6294 12.3561V12.1325V10.005C11.6294 9.8391 11.6953 9.67997 11.8127 9.56264C11.93 9.44531 12.0891 9.3794 12.2551 9.3794C12.421 9.3794 12.5801 9.44531 12.6974 9.56264C12.8148 9.67997 12.8807 9.8391 12.8807 10.005V12.1325V12.3561L13.0474 12.5051C13.2268 12.6656 13.3532 12.8768 13.41 13.1107C13.4667 13.3446 13.4512 13.5902 13.3653 13.815C13.2794 14.0399 13.1273 14.2333 12.929 14.3698C12.7308 14.5063 12.4957 14.5794 12.2551 14.5794C12.0144 14.5794 11.7794 14.5063 11.5811 14.3698C11.3829 14.2333 11.2307 14.0399 11.1448 13.815C11.059 13.5902 11.0434 13.3446 11.1001 13.1107C11.1569 12.8768 11.2834 12.6656 11.4628 12.5051ZM9.56141 1.68324L9.20786 1.32969L9.56142 1.68324C9.67874 1.56591 9.83787 1.5 10.0038 1.5H14.5063C14.6722 1.5 14.8314 1.56591 14.9487 1.68324C15.066 1.80057 15.1319 1.9597 15.1319 2.12563C15.1319 2.29155 15.066 2.45069 14.9487 2.56801C14.8314 2.68534 14.6722 2.75126 14.5063 2.75126H10.0038C9.83787 2.75126 9.67874 2.68534 9.56142 2.56801L9.25837 2.87106L9.56141 2.56801C9.44409 2.45069 9.37817 2.29156 9.37817 2.12563C9.37817 1.9597 9.44409 1.80057 9.56141 1.68324ZM8.22508 19.4132C9.41795 20.2103 10.8204 20.6357 12.2551 20.6357C14.1789 20.6357 16.0239 19.8715 17.3842 18.5111C18.7446 17.1508 19.5088 15.3057 19.5088 13.3819C19.5088 11.9473 19.0834 10.5448 18.2863 9.35193C17.4893 8.15906 16.3564 7.22932 15.031 6.6803C13.7055 6.13128 12.247 5.98763 10.8399 6.26752C9.43282 6.54741 8.14033 7.23827 7.12587 8.25272C6.11141 9.26718 5.42055 10.5597 5.14067 11.9668C4.86078 13.3739 5.00443 14.8324 5.55345 16.1578C6.10247 17.4833 7.0322 18.6161 8.22508 19.4132Z" fill="#51C5FC" stroke="#51C5FC"/>
</svg>
