<svg width="30" height="31" viewBox="0 0 30 31" fill="none" xmlns="http://www.w3.org/2000/svg">
<path d="M14.1102 0C10.0366 0.0113339 6.12313 1.54832 3.17797 4.2935V1.55C3.17797 1.13891 3.01056 0.744666 2.71256 0.453984C2.41457 0.163303 2.01041 0 1.58898 0C1.16756 0 0.763394 0.163303 0.465402 0.453984C0.16741 0.744666 0 1.13891 0 1.55V8.525C0 8.93609 0.16741 9.33033 0.465402 9.62101C0.763394 9.9117 1.16756 10.075 1.58898 10.075H8.73941C9.16083 10.075 9.56499 9.9117 9.86299 9.62101C10.161 9.33033 10.3284 8.93609 10.3284 8.525C10.3284 8.11391 10.161 7.71967 9.86299 7.42898C9.56499 7.1383 9.16083 6.975 8.73941 6.975H4.92585C6.37454 5.48236 8.18089 4.36443 10.1824 3.72176C12.1839 3.0791 14.3178 2.93186 16.3922 3.29329C18.4665 3.65472 20.4162 4.51349 22.0658 5.79233C23.7155 7.07118 25.0134 8.73 25.8428 10.6196C26.6721 12.5091 27.0069 14.5702 26.8171 16.6173C26.6272 18.6644 25.9187 20.6333 24.7552 22.347C23.5916 24.0607 22.0097 25.4654 20.1515 26.4347C18.2933 27.404 16.2173 27.9076 14.1102 27.9C13.6887 27.9 13.2846 28.0633 12.9866 28.354C12.6886 28.6447 12.5212 29.0389 12.5212 29.45C12.5212 29.8611 12.6886 30.2553 12.9866 30.546C13.2846 30.8367 13.6887 31 14.1102 31C18.3244 31 22.3661 29.367 25.346 26.4602C28.3259 23.5533 30 19.6109 30 15.5C30 11.3891 28.3259 7.44666 25.346 4.53984C22.3661 1.63303 18.3244 0 14.1102 0ZM14.1102 9.3C13.6887 9.3 13.2846 9.4633 12.9866 9.75398C12.6886 10.0447 12.5212 10.4389 12.5212 10.85V15.5C12.5212 15.9111 12.6886 16.3053 12.9866 16.596C13.2846 16.8867 13.6887 17.05 14.1102 17.05H17.2881C17.7096 17.05 18.1137 16.8867 18.4117 16.596C18.7097 16.3053 18.8771 15.9111 18.8771 15.5C18.8771 15.0889 18.7097 14.6947 18.4117 14.404C18.1137 14.1133 17.7096 13.95 17.2881 13.95H15.6992V10.85C15.6992 10.4389 15.5317 10.0447 15.2337 9.75398C14.9358 9.4633 14.5316 9.3 14.1102 9.3Z" fill="black"/>
</svg>
