<svg width="30" height="30" viewBox="0 0 30 30" fill="none" xmlns="http://www.w3.org/2000/svg">
<path d="M14.4926 7.50618H19.5014V9.00619C19.5014 9.40401 19.6594 9.78555 19.9406 10.0669C20.2218 10.3482 20.6033 10.5062 21.001 10.5062C21.3987 10.5062 21.7802 10.3482 22.0614 10.0669C22.3426 9.78555 22.5006 9.40401 22.5006 9.00619V7.50618H24.0003C24.398 7.50618 24.7794 7.66422 25.0607 7.94552C25.3419 8.22683 25.4999 8.60836 25.4999 9.00619V13.5062H23.4904C23.0927 13.5062 22.7112 13.6642 22.43 13.9456C22.1488 14.2269 21.9908 14.6084 21.9908 15.0062C21.9908 15.404 22.1488 15.7856 22.43 16.0669C22.7112 16.3482 23.0927 16.5062 23.4904 16.5062H25.4999V18.5162C25.4999 18.9141 25.6579 19.2956 25.9391 19.5769C26.2204 19.8582 26.6018 20.0162 26.9995 20.0162C27.3973 20.0162 27.7787 19.8582 28.0599 19.5769C28.3412 19.2956 28.4992 18.9141 28.4992 18.5162V9.00619C28.4992 7.81271 28.0252 6.66811 27.1815 5.82419C26.3378 4.98027 25.1935 4.50616 24.0003 4.50616H22.5006V3.00615C22.5006 2.60833 22.3426 2.22679 22.0614 1.94549C21.7802 1.66418 21.3987 1.50615 21.001 1.50615C20.6033 1.50615 20.2218 1.66418 19.9406 1.94549C19.6594 2.22679 19.5014 2.60833 19.5014 3.00615V4.50616H14.4926C14.0949 4.50616 13.7134 4.6642 13.4322 4.94551C13.151 5.22681 12.993 5.60834 12.993 6.00617C12.993 6.404 13.151 6.78553 13.4322 7.06684C13.7134 7.34814 14.0949 7.50618 14.4926 7.50618ZM29.5639 27.4413L27.1645 25.0413L2.57051 0.44114C2.43069 0.301281 2.26469 0.190339 2.082 0.114648C1.89931 0.0389575 1.70351 0 1.50577 0C1.30803 0 1.11223 0.0389575 0.929537 0.114648C0.746848 0.190339 0.580853 0.301281 0.44103 0.44114C0.158643 0.723597 0 1.10669 0 1.50615C0 1.9056 0.158643 2.28869 0.44103 2.57115L3.30533 5.42117C2.74861 5.83881 2.29633 6.37994 1.98408 7.00201C1.67182 7.62407 1.50809 8.31012 1.50577 9.00619V24.0063C1.50577 25.1998 1.97976 26.3444 2.82347 27.1883C3.66718 28.0322 4.81149 28.5063 6.00467 28.5063H24.0003C24.6706 28.5023 25.3315 28.3486 25.9348 28.0563L27.4344 29.5563C27.5738 29.6969 27.7397 29.8085 27.9225 29.8846C28.1052 29.9608 28.3012 30 28.4992 30C28.6971 30 28.8932 29.9608 29.0759 29.8846C29.2586 29.8085 29.4245 29.6969 29.5639 29.5563C29.8432 29.2753 30 28.8951 30 28.4988C30 28.1025 29.8432 27.7223 29.5639 27.4413ZM4.50504 9.00619C4.50823 8.70048 4.60474 8.40305 4.78163 8.15373C4.95852 7.90441 5.20735 7.71511 5.4948 7.61118L11.3884 13.5062H4.50504V9.00619ZM6.00467 25.5063C5.60694 25.5063 5.22551 25.3482 4.94427 25.0669C4.66303 24.7856 4.50504 24.4041 4.50504 24.0063V16.5062H14.3876L23.3854 25.5063H6.00467Z" fill="black"/>
</svg>
