<svg width="128" height="110" viewBox="0 0 128 110" fill="none" xmlns="http://www.w3.org/2000/svg">
<path d="M108.798 19.1997H100.606L98.558 12.7999C97.2303 9.04463 94.7676 5.79524 91.5111 3.5019C88.2545 1.20855 84.3653 -0.0152118 80.3823 0.00014274H47.615C43.593 0.00766714 39.6749 1.27809 36.4137 3.6321C33.1526 5.98611 30.713 9.30484 29.4394 13.1199L27.3914 19.5197H19.1996C14.1076 19.5197 9.22406 21.5425 5.62343 25.1432C2.02281 28.7438 0 33.6273 0 38.7193V89.9183C0 95.0103 2.02281 99.8938 5.62343 103.494C9.22406 107.095 14.1076 109.118 19.1996 109.118H108.798C113.89 109.118 118.773 107.095 122.374 103.494C125.975 99.8938 127.997 95.0103 127.997 89.9183V38.7193C128.04 36.1712 127.575 33.6401 126.629 31.2737C125.683 28.9072 124.275 26.7527 122.488 24.9358C120.701 23.119 118.57 21.676 116.22 20.6912C113.869 19.7064 111.346 19.1994 108.798 19.1997ZM115.198 89.5983C115.198 91.2956 114.523 92.9235 113.323 94.1237C112.123 95.3239 110.495 95.9981 108.798 95.9981H19.1996C17.5023 95.9981 15.8744 95.3239 14.6742 94.1237C13.474 92.9235 12.7997 91.2956 12.7997 89.5983V38.3993C12.7997 36.702 13.474 35.0742 14.6742 33.874C15.8744 32.6737 17.5023 31.9995 19.1996 31.9995H31.9993C33.3949 32.0723 34.776 31.6864 35.9316 30.9005C37.0873 30.1147 37.9539 28.9722 38.3992 27.6476L41.8551 17.1518C42.2845 15.8806 43.1024 14.7766 44.1935 13.9956C45.2845 13.2147 46.5933 12.7964 47.935 12.7999H80.7023C82.044 12.7964 83.3529 13.2147 84.4439 13.9956C85.5349 14.7766 86.3529 15.8806 86.7822 17.1518L90.2381 27.6476C90.6488 28.8683 91.4183 29.9367 92.4459 30.7132C93.4735 31.4896 94.7115 31.9379 95.998 31.9995H108.798C110.495 31.9995 112.123 32.6737 113.323 33.874C114.523 35.0742 115.198 36.702 115.198 38.3993V89.5983ZM63.9987 31.9995C58.9356 31.9995 53.9862 33.5009 49.7764 36.3138C45.5666 39.1267 42.2854 43.1248 40.3478 47.8025C38.4103 52.4801 37.9033 57.6273 38.8911 62.5932C39.8788 67.559 42.317 72.1204 45.8971 75.7005C49.4773 79.2807 54.0387 81.7188 59.0045 82.7065C63.9703 83.6943 69.1175 83.1873 73.7952 81.2498C78.4729 79.3122 82.4709 76.0311 85.2839 71.8212C88.0968 67.6114 89.5981 62.662 89.5981 57.5989C89.5981 50.8095 86.9011 44.2982 82.1002 39.4974C77.2994 34.6966 70.7881 31.9995 63.9987 31.9995ZM63.9987 70.3987C61.4671 70.3987 58.9924 69.648 56.8875 68.2415C54.7826 66.8351 53.142 64.836 52.1733 62.4972C51.2045 60.1583 50.951 57.5847 51.4449 55.1018C51.9388 52.6189 53.1578 50.3382 54.9479 48.5482C56.738 46.7581 59.0187 45.539 61.5016 45.0452C63.9845 44.5513 66.5581 44.8048 68.8969 45.7735C71.2358 46.7423 73.2348 48.3829 74.6413 50.4878C76.0477 52.5927 76.7984 55.0674 76.7984 57.5989C76.7984 60.9936 75.4499 64.2493 73.0494 66.6497C70.649 69.0501 67.3934 70.3987 63.9987 70.3987Z" fill="#AAAAAA"/>
</svg>
