<svg width="26" height="31" viewBox="0 0 26 31" fill="none" xmlns="http://www.w3.org/2000/svg">
<path d="M10.725 5.10528C10.2943 5.18315 9.91204 5.42967 9.6623 5.79062C9.41256 6.15157 9.31581 6.59737 9.39334 7.02996C9.47087 7.46255 9.71632 7.84649 10.0757 8.09732C10.4351 8.34814 10.8789 8.44531 11.3097 8.36745C11.8461 8.27436 12.3893 8.22526 12.9337 8.22065C15.5179 8.22065 17.9963 9.25172 19.8237 11.087C21.651 12.9224 22.6776 15.4116 22.6776 18.0071C22.673 18.5539 22.6242 19.0994 22.5315 19.6382C22.4555 20.062 22.5495 20.4987 22.7929 20.8531C23.0363 21.2076 23.4093 21.451 23.8307 21.5303H24.123C24.5075 21.5366 24.8818 21.4056 25.1792 21.1607C25.4766 20.9157 25.6778 20.5728 25.747 20.1928C25.8978 19.4517 25.9793 18.6982 25.9906 17.9419C25.9832 15.0382 25.0116 12.2199 23.2298 9.93328L24.7076 8.46531C25.0134 8.15817 25.1852 7.7416 25.1852 7.30724C25.1852 6.87288 25.0134 6.45632 24.7076 6.14918C24.4018 5.84204 23.9871 5.66949 23.5546 5.66949C23.1221 5.66949 22.7074 5.84204 22.4016 6.14918L20.94 7.63346C18.6678 5.86238 15.8747 4.89861 12.9986 4.89324C12.2358 4.89178 11.4745 4.96277 10.725 5.10528ZM9.75062 3.26216H16.2466C16.6773 3.26216 17.0904 3.09032 17.3949 2.78443C17.6995 2.47854 17.8706 2.06367 17.8706 1.63108C17.8706 1.19849 17.6995 0.78362 17.3949 0.477733C17.0904 0.171845 16.6773 0 16.2466 0H9.75062C9.31991 0 8.90684 0.171845 8.60228 0.477733C8.29772 0.78362 8.12663 1.19849 8.12663 1.63108C8.12663 2.06367 8.29772 2.47854 8.60228 2.78443C8.90684 3.09032 9.31991 3.26216 9.75062 3.26216ZM15.4184 18.0724C15.4184 18.0724 15.4184 17.9908 15.4184 17.9419C15.4184 17.893 15.4184 17.8603 15.4184 17.8114L17.5945 15.6421C17.7459 15.49 17.8661 15.3094 17.948 15.1107C18.0299 14.912 18.0721 14.6991 18.0721 14.484C18.0721 14.2689 18.0299 14.056 17.948 13.8573C17.8661 13.6586 17.7459 13.478 17.5945 13.3259C17.4431 13.1739 17.2633 13.0532 17.0655 12.9709C16.8677 12.8886 16.6556 12.8462 16.4415 12.8462C16.2273 12.8462 16.0153 12.8886 15.8175 12.9709C15.6196 13.0532 15.4399 13.1739 15.2884 13.3259L13.1285 15.4953H12.8687L2.78368 5.36626C2.47787 5.05912 2.06311 4.88657 1.63064 4.88657C1.19817 4.88657 0.783408 5.05912 0.477603 5.36626C0.171799 5.6734 3.22218e-09 6.08997 0 6.52432C-3.22217e-09 6.95868 0.171799 7.37525 0.477603 7.68239L1.25712 8.46531L2.73496 9.9496C0.808038 12.4608 -0.142663 15.5907 0.0604796 18.7546C0.263622 21.9185 1.60671 24.8998 3.83881 27.1417C6.07091 29.3835 9.03932 30.7324 12.1894 30.9365C15.3396 31.1405 18.4559 30.1857 20.9562 28.2503L23.2136 30.5175C23.3645 30.6704 23.5441 30.7918 23.742 30.8746C23.9399 30.9574 24.1522 31 24.3666 31C24.581 31 24.7932 30.9574 24.9911 30.8746C25.189 30.7918 25.3687 30.6704 25.5196 30.5175C25.6718 30.3659 25.7927 30.1855 25.8751 29.9867C25.9576 29.788 26 29.5748 26 29.3595C26 29.1441 25.9576 28.9309 25.8751 28.7322C25.7927 28.5334 25.6718 28.353 25.5196 28.2014L15.4184 18.0724ZM12.9986 27.7284C11.2039 27.7334 9.44261 27.2404 7.9091 26.3039C6.37559 25.3673 5.12941 24.0236 4.30801 22.4209C3.48662 20.8181 3.12191 19.0187 3.25412 17.221C3.38633 15.4233 4.01032 13.6972 5.05727 12.2331L10.5789 17.7625C10.5789 17.7625 10.5789 17.844 10.5789 17.893C10.5724 18.217 10.6301 18.5391 10.7486 18.8405C10.8671 19.1419 11.0441 19.4167 11.2692 19.6489C11.4943 19.8811 11.7631 20.066 12.06 20.193C12.3569 20.32 12.6759 20.3864 12.9986 20.3885H13.1285L18.6339 25.9342C16.9858 27.1039 15.0167 27.7309 12.9986 27.7284Z" fill="black"/>
</svg>
