<svg width="14" height="16" viewBox="0 0 14 16" fill="none" xmlns="http://www.w3.org/2000/svg">
<path d="M6.75979 6.40485C6.54888 6.40485 6.34661 6.48864 6.19748 6.63777C6.04834 6.78691 5.96456 6.98918 5.96456 7.20009V8.79056C5.96456 9.00147 6.04834 9.20374 6.19748 9.35287C6.34661 9.50201 6.54888 9.58579 6.75979 9.58579C6.9707 9.58579 7.17297 9.50201 7.32211 9.35287C7.47124 9.20374 7.55503 9.00147 7.55503 8.79056V7.20009C7.55503 6.98918 7.47124 6.78691 7.32211 6.63777C7.17297 6.48864 6.9707 6.40485 6.75979 6.40485ZM13.4875 6.15038C13.382 4.98505 12.9759 3.86704 12.3088 2.90575C11.6417 1.94445 10.7365 1.17278 9.68173 0.666235C8.62697 0.159691 7.45878 -0.0643779 6.29145 0.0159487C5.12411 0.0962752 3.99763 0.478246 3.02219 1.12449C2.18655 1.68326 1.48504 2.42017 0.96805 3.28228C0.45106 4.14438 0.131424 5.11029 0.0321031 6.11062C-0.0653273 7.10439 0.059677 8.10739 0.398047 9.04684C0.736416 9.9863 1.27967 10.8387 1.98838 11.5421L6.20313 15.7648C6.27706 15.8393 6.36501 15.8985 6.46192 15.9388C6.55882 15.9792 6.66276 16 6.76775 16C6.87273 16 6.97667 15.9792 7.07357 15.9388C7.17048 15.8985 7.25843 15.8393 7.33236 15.7648L11.5312 11.5421C12.2399 10.8387 12.7832 9.9863 13.1215 9.04684C13.4599 8.10739 13.5849 7.10439 13.4875 6.11062V6.15038ZM10.4179 10.4208L6.75979 14.0789L3.10171 10.4208C2.56261 9.88166 2.14966 9.22979 1.89253 8.51204C1.6354 7.79428 1.54049 7.02847 1.61462 6.26966C1.68923 5.49916 1.93412 4.75487 2.33158 4.09059C2.72905 3.42632 3.26915 2.85867 3.91285 2.42868C4.75655 1.86822 5.74691 1.56926 6.75979 1.56926C7.77268 1.56926 8.76303 1.86822 9.60673 2.42868C10.2485 2.85701 10.7874 3.42215 11.1848 4.08351C11.5821 4.74488 11.8281 5.48604 11.905 6.25376C11.9815 7.01514 11.8878 7.78401 11.6306 8.50471C11.3734 9.22541 10.9592 9.8799 10.4179 10.4208ZM7.49141 4.47243C7.47553 4.42358 7.45131 4.37784 7.41984 4.33724L7.32441 4.21796C7.22947 4.12781 7.11375 4.0625 6.9875 4.02782C6.86126 3.99314 6.72841 3.99016 6.60075 4.01915H6.4576L6.31446 4.09072L6.19518 4.1941L6.09975 4.31339C6.06827 4.35398 6.04406 4.39972 6.02818 4.44858C6.00396 4.49593 5.98783 4.547 5.98046 4.59967C5.96728 4.67044 5.96194 4.74244 5.96456 4.81438C5.96179 4.92127 5.98356 5.02736 6.02818 5.12453C6.06869 5.21838 6.12519 5.30449 6.19518 5.379C6.27087 5.45331 6.3599 5.51267 6.4576 5.55395C6.65228 5.62791 6.86731 5.62791 7.06198 5.55395C7.15863 5.51073 7.24734 5.45159 7.32441 5.379C7.39439 5.30449 7.4509 5.21838 7.49141 5.12453C7.53319 5.02645 7.55482 4.92098 7.55503 4.81438C7.55892 4.76409 7.55892 4.71358 7.55503 4.66329C7.54763 4.59587 7.52594 4.53081 7.49141 4.47243Z" fill="white"/>
</svg>
