<svg width="30" height="30" viewBox="0 0 30 30" fill="none" xmlns="http://www.w3.org/2000/svg">
<path d="M28.2538 7.97997C27.0383 5.70665 25.2638 3.781 23.0978 2.38497C21.1376 1.12299 18.9103 0.335886 16.593 0.0861934C14.2756 -0.163499 11.932 0.131103 9.74832 0.946592C7.56465 1.76208 5.6011 3.07598 4.01369 4.78391C2.42627 6.49184 1.25873 8.54672 0.603837 10.7853C-0.0510614 13.0239 -0.175272 15.3844 0.241075 17.6795C0.657421 19.9745 1.60285 22.1407 3.00225 24.0061C4.40164 25.8714 6.21644 27.3844 8.30245 28.4249C10.3885 29.4654 12.6882 30.0047 15.019 30H15.4536C18.0003 29.9248 20.4857 29.2011 22.6752 27.8975C24.8648 26.5938 26.6861 24.7531 27.9672 22.5492C29.2483 20.3453 29.9469 17.8509 29.9971 15.3017C30.0472 12.7525 29.4473 10.2326 28.2538 7.97997ZM13.5201 26.895C10.6395 26.5111 7.99628 25.0934 6.08184 22.9054C4.1674 20.7175 3.11207 17.9082 3.11207 15C3.11207 12.0917 4.1674 9.28247 6.08184 7.09452C7.99628 4.90657 10.6395 3.48885 13.5201 3.10497V26.895ZM16.5178 3.10497C17.8136 3.27085 19.074 3.64571 20.2499 4.21497L16.5178 10.68V3.10497ZM16.5178 16.605L22.768 5.84997C23.6895 6.64189 24.4877 7.5671 25.1362 8.59497L16.5178 23.535V16.605ZM18.2415 26.475L26.6201 12C26.8734 12.98 27.0043 13.9877 27.0098 15C27.0079 17.619 26.1499 20.1655 24.5668 22.2509C22.9836 24.3363 20.7622 25.8461 18.2415 26.55V26.475Z" fill="black"/>
</svg>
