<svg width="16" height="16" viewBox="0 0 16 16" fill="none" xmlns="http://www.w3.org/2000/svg">
<path d="M7.2 5.6H10.4C10.6122 5.6 10.8157 5.51571 10.9657 5.36569C11.1157 5.21566 11.2 5.01217 11.2 4.8C11.2 4.58783 11.1157 4.38434 10.9657 4.23431C10.8157 4.08429 10.6122 4 10.4 4H8.8V3.2C8.8 2.98783 8.71571 2.78434 8.56569 2.63431C8.41566 2.48429 8.21217 2.4 8 2.4C7.78783 2.4 7.58434 2.48429 7.43431 2.63431C7.28429 2.78434 7.2 2.98783 7.2 3.2V4C6.56348 4 5.95303 4.25286 5.50294 4.70294C5.05286 5.15303 4.8 5.76348 4.8 6.4C4.8 7.03652 5.05286 7.64697 5.50294 8.09706C5.95303 8.54714 6.56348 8.8 7.2 8.8H8.8C9.01217 8.8 9.21566 8.88429 9.36569 9.03432C9.51571 9.18434 9.6 9.38783 9.6 9.6C9.6 9.81217 9.51571 10.0157 9.36569 10.1657C9.21566 10.3157 9.01217 10.4 8.8 10.4H5.6C5.38783 10.4 5.18434 10.4843 5.03431 10.6343C4.88429 10.7843 4.8 10.9878 4.8 11.2C4.8 11.4122 4.88429 11.6157 5.03431 11.7657C5.18434 11.9157 5.38783 12 5.6 12H7.2V12.8C7.2 13.0122 7.28429 13.2157 7.43431 13.3657C7.58434 13.5157 7.78783 13.6 8 13.6C8.21217 13.6 8.41566 13.5157 8.56569 13.3657C8.71571 13.2157 8.8 13.0122 8.8 12.8V12C9.43652 12 10.047 11.7471 10.4971 11.2971C10.9471 10.847 11.2 10.2365 11.2 9.6C11.2 8.96348 10.9471 8.35303 10.4971 7.90294C10.047 7.45286 9.43652 7.2 8.8 7.2H7.2C6.98783 7.2 6.78434 7.11571 6.63432 6.96569C6.48429 6.81566 6.4 6.61217 6.4 6.4C6.4 6.18783 6.48429 5.98434 6.63432 5.83431C6.78434 5.68429 6.98783 5.6 7.2 5.6ZM13.6 0H2.4C1.76348 0 1.15303 0.252856 0.702944 0.702944C0.252856 1.15303 0 1.76348 0 2.4V13.6C0 14.2365 0.252856 14.847 0.702944 15.2971C1.15303 15.7471 1.76348 16 2.4 16H13.6C14.2365 16 14.847 15.7471 15.2971 15.2971C15.7471 14.847 16 14.2365 16 13.6V2.4C16 1.76348 15.7471 1.15303 15.2971 0.702944C14.847 0.252856 14.2365 0 13.6 0ZM14.4 13.6C14.4 13.8122 14.3157 14.0157 14.1657 14.1657C14.0157 14.3157 13.8122 14.4 13.6 14.4H2.4C2.18783 14.4 1.98434 14.3157 1.83431 14.1657C1.68429 14.0157 1.6 13.8122 1.6 13.6V2.4C1.6 2.18783 1.68429 1.98434 1.83431 1.83431C1.98434 1.68429 2.18783 1.6 2.4 1.6H13.6C13.8122 1.6 14.0157 1.68429 14.1657 1.83431C14.3157 1.98434 14.4 2.18783 14.4 2.4V13.6Z" fill="#51C5FC"/>
</svg>
