<svg width="14" height="13" viewBox="0 0 14 13" fill="none" xmlns="http://www.w3.org/2000/svg">
<path fill-rule="evenodd" clip-rule="evenodd" d="M7.66683 5.83333C6.42427 5.83333 5.3802 4.98349 5.08417 3.83333H0.333496V2.5H5.08417C5.3802 1.34985 6.42427 0.5 7.66683 0.5C9.13959 0.5 10.3335 1.69391 10.3335 3.16667C10.3335 4.63943 9.13959 5.83333 7.66683 5.83333ZM11.6668 2.5H13.6668V3.83333H11.6668V2.5ZM4.3335 12.5C3.09094 12.5 2.04687 11.6502 1.75084 10.5H0.333496V9.16667H1.75084C2.04687 8.01652 3.09094 7.16667 4.3335 7.16667C5.80626 7.16667 7.00016 8.36057 7.00016 9.83333C7.00016 11.3061 5.80626 12.5 4.3335 12.5ZM8.3335 10.5H13.6668V9.16667H8.3335V10.5ZM5.66683 9.83333C5.66683 10.5697 5.06988 11.1667 4.3335 11.1667C3.59712 11.1667 3.00016 10.5697 3.00016 9.83333C3.00016 9.09695 3.59712 8.5 4.3335 8.5C5.06988 8.5 5.66683 9.09695 5.66683 9.83333ZM9.00016 3.16667C9.00016 3.90305 8.40321 4.5 7.66683 4.5C6.93045 4.5 6.3335 3.90305 6.3335 3.16667C6.3335 2.43029 6.93045 1.83333 7.66683 1.83333C8.40321 1.83333 9.00016 2.43029 9.00016 3.16667Z" fill="#51C5FC"/>
</svg>
