<svg width="16" height="15" viewBox="0 0 16 15" fill="none" xmlns="http://www.w3.org/2000/svg">
<path d="M8 7.50002C7.56848 7.50002 7.14665 7.62798 6.78785 7.86773C6.42905 8.10747 6.1494 8.44822 5.98426 8.8469C5.81913 9.24557 5.77592 9.68426 5.86011 10.1075C5.94429 10.5307 6.15209 10.9195 6.45722 11.2246C6.76235 11.5298 7.15112 11.7375 7.57435 11.8217C7.99758 11.9059 8.43627 11.8627 8.83495 11.6976C9.23362 11.5324 9.57437 11.2528 9.81412 10.894C10.0539 10.5352 10.1818 10.1134 10.1818 9.68184C10.1818 9.10319 9.95195 8.54823 9.54278 8.13906C9.13361 7.72989 8.57865 7.50002 8 7.50002ZM8 10.4091C7.85616 10.4091 7.71555 10.3665 7.59595 10.2865C7.47635 10.2066 7.38313 10.093 7.32809 9.96016C7.27304 9.82726 7.25864 9.68103 7.2867 9.53996C7.31476 9.39888 7.38403 9.26929 7.48574 9.16758C7.58745 9.06587 7.71704 8.9966 7.85812 8.96854C7.99919 8.94048 8.14542 8.95488 8.27832 9.00993C8.41121 9.06497 8.52479 9.15819 8.60471 9.27779C8.68462 9.39739 8.72727 9.538 8.72727 9.68184C8.72727 9.87473 8.65065 10.0597 8.51426 10.1961C8.37787 10.3325 8.19289 10.4091 8 10.4091ZM7.48364 5.83457C7.5528 5.90078 7.63436 5.95268 7.72364 5.9873C7.81069 6.02577 7.90482 6.04565 8 6.04565C8.09518 6.04565 8.18931 6.02577 8.27636 5.9873C8.36564 5.95268 8.4472 5.90078 8.51636 5.83457L10.1818 4.1982C10.3226 4.0574 10.4017 3.86642 10.4017 3.66729C10.4017 3.46817 10.3226 3.27719 10.1818 3.13639C10.041 2.99558 9.85004 2.91648 9.65091 2.91648C9.45178 2.91648 9.26081 2.99558 9.12 3.13639L8.72727 3.56548V0.954568C8.72727 0.761683 8.65065 0.576698 8.51426 0.440308C8.37787 0.303918 8.19289 0.227295 8 0.227295C7.80712 0.227295 7.62213 0.303918 7.48574 0.440308C7.34935 0.576698 7.27273 0.761683 7.27273 0.954568V3.56548L6.88 3.13639C6.73919 2.99558 6.54822 2.91648 6.34909 2.91648C6.14996 2.91648 5.95899 2.99558 5.81818 3.13639C5.67738 3.27719 5.59827 3.46817 5.59827 3.66729C5.59827 3.86642 5.67738 4.0574 5.81818 4.1982L7.48364 5.83457ZM13.0909 9.68184C13.0909 9.538 13.0483 9.39739 12.9683 9.27779C12.8884 9.15819 12.7748 9.06497 12.642 9.00993C12.5091 8.95488 12.3628 8.94048 12.2218 8.96854C12.0807 8.9966 11.9511 9.06587 11.8494 9.16758C11.7477 9.26929 11.6784 9.39888 11.6503 9.53996C11.6223 9.68103 11.6367 9.82726 11.6917 9.96016C11.7468 10.093 11.84 10.2066 11.9596 10.2865C12.0792 10.3665 12.2198 10.4091 12.3636 10.4091C12.5565 10.4091 12.7415 10.3325 12.8779 10.1961C13.0143 10.0597 13.0909 9.87473 13.0909 9.68184ZM13.8182 4.59093H11.6364C11.4435 4.59093 11.2585 4.66755 11.1221 4.80394C10.9857 4.94033 10.9091 5.12532 10.9091 5.3182C10.9091 5.51109 10.9857 5.69607 11.1221 5.83246C11.2585 5.96885 11.4435 6.04548 11.6364 6.04548H13.8182C14.0111 6.04548 14.1961 6.1221 14.3324 6.25849C14.4688 6.39488 14.5455 6.57986 14.5455 6.77275V12.5909C14.5455 12.7838 14.4688 12.9688 14.3324 13.1052C14.1961 13.2416 14.0111 13.3182 13.8182 13.3182H2.18182C1.98893 13.3182 1.80395 13.2416 1.66756 13.1052C1.53117 12.9688 1.45455 12.7838 1.45455 12.5909V6.77275C1.45455 6.57986 1.53117 6.39488 1.66756 6.25849C1.80395 6.1221 1.98893 6.04548 2.18182 6.04548H4.36364C4.55652 6.04548 4.74151 5.96885 4.8779 5.83246C5.01429 5.69607 5.09091 5.51109 5.09091 5.3182C5.09091 5.12532 5.01429 4.94033 4.8779 4.80394C4.74151 4.66755 4.55652 4.59093 4.36364 4.59093H2.18182C1.60316 4.59093 1.04821 4.8208 0.63904 5.22997C0.229869 5.63914 0 6.1941 0 6.77275V12.5909C0 13.1696 0.229869 13.7245 0.63904 14.1337C1.04821 14.5429 1.60316 14.7727 2.18182 14.7727H13.8182C14.3968 14.7727 14.9518 14.5429 15.361 14.1337C15.7701 13.7245 16 13.1696 16 12.5909V6.77275C16 6.1941 15.7701 5.63914 15.361 5.22997C14.9518 4.8208 14.3968 4.59093 13.8182 4.59093ZM2.90909 9.68184C2.90909 9.82568 2.95174 9.96629 3.03166 10.0859C3.11157 10.2055 3.22516 10.2987 3.35805 10.3538C3.49094 10.4088 3.63717 10.4232 3.77825 10.3951C3.91932 10.3671 4.04891 10.2978 4.15062 10.1961C4.25233 10.0944 4.3216 9.9648 4.34966 9.82372C4.37772 9.68265 4.36332 9.53642 4.30828 9.40353C4.25323 9.27063 4.16001 9.15705 4.04041 9.07714C3.92082 8.99722 3.7802 8.95457 3.63636 8.95457C3.44348 8.95457 3.25849 9.03119 3.1221 9.16758C2.98571 9.30397 2.90909 9.48896 2.90909 9.68184Z" fill="#C8C8C8"/>
</svg>
