<svg width="30" height="32" viewBox="0 0 30 32" fill="none" xmlns="http://www.w3.org/2000/svg">
<path d="M27.0302 12.2381V11.9828C27.0393 9.42904 26.229 6.93964 24.7184 4.88049C23.2079 2.82133 21.0766 1.30099 18.6379 0.542891H18.5478C17.2883 0.158907 15.976 -0.0235023 14.6594 0.00242088C11.5245 0.174459 8.57329 1.53638 6.40826 3.81022C4.24322 6.08407 3.02754 9.09842 3.00931 12.2381C2.12956 12.5475 1.36757 13.1225 0.828535 13.8835C0.2895 14.6446 0 15.5542 0 16.4868C0 17.4194 0.2895 18.329 0.828535 19.09C1.36757 19.851 2.12956 20.426 3.00931 20.7355C3.31853 23.7002 4.71917 26.444 6.93894 28.4335C9.15871 30.423 12.039 31.5159 15.0198 31.4998H15.3651C18.2475 31.3603 20.9873 30.204 23.0981 28.2361C25.2089 26.2682 26.5542 23.6161 26.8951 20.7505C27.7852 20.4585 28.5621 19.8962 29.1177 19.142C29.6732 18.3878 29.9798 17.479 29.9946 16.5424C30.0095 15.6057 29.7319 14.6878 29.2006 13.9163C28.6693 13.1448 27.9106 12.5581 27.0302 12.2381ZM15.29 28.4972C13.1167 28.5601 10.994 27.8348 9.3136 26.4551C7.6332 25.0755 6.5085 23.1346 6.14704 20.9907H23.8174C23.451 23.0203 22.4092 24.8664 20.8611 26.2291C19.313 27.5919 17.3497 28.3912 15.29 28.4972ZM25.5289 17.9881H4.51061C4.11244 17.9881 3.73058 17.8299 3.44903 17.5483C3.16748 17.2668 3.00931 16.8849 3.00931 16.4868C3.00931 16.0886 3.16748 15.7067 3.44903 15.4252C3.73058 15.1436 4.11244 14.9855 4.51061 14.9855H7.51323C7.9114 14.9855 8.29326 14.8273 8.57481 14.5457C8.85636 14.2642 9.01453 13.8823 9.01453 13.4841C9.01453 13.086 8.85636 12.7041 8.57481 12.4226C8.29326 12.141 7.9114 11.9828 7.51323 11.9828H6.01192C6.07912 10.4254 6.52426 8.90771 7.30893 7.5607C8.09359 6.21369 9.19422 5.07783 10.5158 4.25112V8.98023C10.5158 9.3784 10.674 9.76027 10.9556 10.0418C11.2371 10.3234 11.619 10.4815 12.0171 10.4815C12.4153 10.4815 12.7972 10.3234 13.0787 10.0418C13.3603 9.76027 13.5185 9.3784 13.5185 8.98023V3.11012C13.926 3.04204 14.337 2.99693 14.7495 2.97501H15.0198C15.5229 2.98209 16.0248 3.02726 16.5211 3.11012V8.98023C16.5211 9.3784 16.6792 9.76027 16.9608 10.0418C17.2423 10.3234 17.6242 10.4815 18.0224 10.4815C18.4205 10.4815 18.8024 10.3234 19.084 10.0418C19.3655 9.76027 19.5237 9.3784 19.5237 8.98023V4.20608C20.1605 4.57484 20.7546 5.01288 21.2952 5.51221C22.1608 6.35279 22.8487 7.3587 23.3181 8.47024C23.7874 9.58177 24.0287 10.7763 24.0276 11.9828H22.5263C22.1281 11.9828 21.7463 12.141 21.4647 12.4226C21.1832 12.7041 21.025 13.086 21.025 13.4841C21.025 13.8823 21.1832 14.2642 21.4647 14.5457C21.7463 14.8273 22.1281 14.9855 22.5263 14.9855H25.5289C25.9271 14.9855 26.3089 15.1436 26.5905 15.4252C26.872 15.7067 27.0302 16.0886 27.0302 16.4868C27.0302 16.8849 26.872 17.2668 26.5905 17.5483C26.3089 17.8299 25.9271 17.9881 25.5289 17.9881Z" fill="black"/>
</svg>
