<svg width="26" height="26" viewBox="0 0 26 26" fill="none" xmlns="http://www.w3.org/2000/svg">
<circle cx="13" cy="13" r="12" fill="white" stroke="#28C397" stroke-width="2"/>
<path d="M17.75 12.375H14.375V9C14.375 8.60156 14.0234 8.25 13.625 8.25H12.875C12.4531 8.25 12.125 8.60156 12.125 9V12.375H8.75C8.32812 12.375 8 12.7266 8 13.125V13.875C8 14.2969 8.32812 14.625 8.75 14.625H12.125V18C12.125 18.4219 12.4531 18.75 12.875 18.75H13.625C14.0234 18.75 14.375 18.4219 14.375 18V14.625H17.75C18.1484 14.625 18.5 14.2969 18.5 13.875V13.125C18.5 12.7266 18.1484 12.375 17.75 12.375Z" fill="#28C397"/>
</svg>
