<svg width="9" height="11" viewBox="0 0 9 11" fill="none" xmlns="http://www.w3.org/2000/svg">
<path d="M5.14844 5.5C4.91406 5.28906 4.5625 5.28906 4.35156 5.5L1.16406 8.6875C0.929688 8.92188 0.929688 9.27344 1.16406 9.48438L1.67969 10.0234C1.91406 10.2344 2.26562 10.2344 2.47656 10.0234L4.75 7.75L7 10.0234C7.21094 10.2344 7.58594 10.2344 7.79688 10.0234L8.33594 9.48438C8.54688 9.27344 8.54688 8.92188 8.33594 8.6875L5.14844 5.5ZM4.35156 1L1.16406 4.1875C0.929688 4.42188 0.929688 4.77344 1.16406 4.98438L1.67969 5.52344C1.91406 5.73438 2.26562 5.73438 2.47656 5.52344L4.72656 3.25L7 5.52344C7.21094 5.73438 7.5625 5.73438 7.79688 5.52344L8.3125 4.98438C8.54688 4.77344 8.54688 4.39844 8.3125 4.1875L5.125 1C4.91406 0.789062 4.5625 0.789062 4.35156 1Z" fill="white"/>
</svg>
