<svg width="24" height="30" viewBox="0 0 24 30" fill="none" xmlns="http://www.w3.org/2000/svg">
<path d="M19.9098 15.1265C19.6361 14.8528 19.2645 14.6989 18.8776 14.6989C18.4902 14.6989 18.1188 14.8528 17.8449 15.1265L15.4065 17.5649V2.33099C15.4065 1.52454 14.7527 0.871094 13.9466 0.871094H10.0536C9.66622 0.871094 9.29482 1.02468 9.02095 1.29836C8.74726 1.57243 8.59368 1.94344 8.59368 2.33099V17.5649L6.15527 15.1265C5.88159 14.8528 5.51019 14.6989 5.12303 14.6989C4.73567 14.6989 4.36427 14.8528 4.09039 15.1265L1.33742 17.8795C1.05264 18.1646 0.910156 18.5384 0.910156 18.9117C0.910156 19.2855 1.05284 19.6592 1.33742 19.9444L10.9679 29.5744C11.5378 30.1448 12.4624 30.1448 13.0322 29.5744L22.6626 19.9444C23.2325 19.374 23.2325 18.4498 22.6626 17.8797L19.9098 15.1265Z" fill="#6F7287"/>
</svg>
