<svg width="23" height="22" viewBox="0 0 23 22" fill="none" xmlns="http://www.w3.org/2000/svg">
<path d="M14.6147 10.8173C15.0839 10.544 15.4799 10.1696 15.7711 9.724C16.0623 9.27838 16.2406 8.77386 16.2918 8.25065C16.3007 7.77754 16.212 7.3074 16.0309 6.86706C15.8498 6.42673 15.5798 6.02484 15.2363 5.68434C14.8928 5.34384 14.4825 5.07141 14.0289 4.88261C13.5753 4.69381 13.0872 4.59234 12.5926 4.58398H6.37305V17.4173H13.0814C13.5521 17.4125 14.0172 17.3191 14.4501 17.1424C14.883 16.9656 15.2753 16.7091 15.6046 16.3873C15.9339 16.0656 16.1937 15.6849 16.3691 15.2671C16.5446 14.8493 16.6323 14.4025 16.6272 13.9523V13.8423C16.6275 13.2072 16.4383 12.5851 16.0819 12.0493C15.7254 11.5134 15.2164 11.086 14.6147 10.8173ZM8.28971 6.41732H12.3147C12.7231 6.40523 13.1256 6.51291 13.4682 6.72592C13.8108 6.93892 14.0771 7.24706 14.2314 7.60899C14.3875 8.09279 14.337 8.61602 14.091 9.06433C13.845 9.51264 13.4234 9.84957 12.9185 10.0015C12.7224 10.0565 12.5191 10.0842 12.3147 10.084H8.28971V6.41732ZM12.698 15.584H8.28971V11.9173H12.698C13.1065 11.9052 13.509 12.0129 13.8516 12.2259C14.1942 12.4389 14.4605 12.7471 14.6147 13.109C14.7708 13.5928 14.7203 14.116 14.4743 14.5643C14.2283 15.0126 13.8067 15.3496 13.3018 15.5015C13.1057 15.5565 12.9024 15.5842 12.698 15.584Z" fill="#000833"/>
</svg>
