<svg width="30" height="30" viewBox="0 0 30 30" fill="none" xmlns="http://www.w3.org/2000/svg">
<path d="M9.81096 20.8254L5.59279 25.8533C5.59264 25.8533 5.59249 25.8533 5.59238 25.8532C5.59227 25.853 5.59221 25.8529 5.59221 25.8527C3.48205 24.0814 2.06316 21.6235 1.58454 18.9103C1.10591 16.1971 1.59813 13.4021 2.97482 11.0156L8.659 14.2969C8.05318 15.3469 7.83658 16.5769 8.04724 17.7707C8.25789 18.9646 8.88234 20.0461 9.81096 20.8254Z" fill="#8E9C4C"/>
<path d="M11.3603 12.0281C10.2219 12.4443 9.26616 13.2475 8.6602 14.2973C8.05425 15.347 7.83672 16.5764 8.04568 17.7703L1.58221 18.91C1.10401 16.1962 1.59698 13.4006 2.9746 11.0141C4.35222 8.62757 6.52643 6.80254 9.1156 5.85938L11.3603 12.0281Z" fill="#8E9C4C"/>
<path d="M13.1244 22.0299V28.5924H13.0916C13.0576 28.5924 13.0236 28.5924 12.9902 28.5918C10.2809 28.5648 7.6653 27.596 5.59219 25.8514C5.59203 25.8514 5.59188 25.8513 5.59177 25.8512C5.59166 25.8511 5.5916 25.8509 5.5916 25.8508C5.58516 25.8455 5.57871 25.8396 5.57226 25.8344C3.4707 24.0658 2.05819 21.6143 1.58203 18.9092L8.04551 17.7695C8.25686 18.9631 8.88165 20.0442 9.81032 20.8232C10.739 21.6022 11.9123 22.0294 13.1244 22.0299Z" fill="#FCB442"/>
<path d="M20.6242 25.8514C18.5511 27.5964 15.9353 28.5655 13.2256 28.5924C13.1922 28.593 13.1582 28.593 13.1242 28.593H13.0914C13.0574 28.593 13.0234 28.593 12.99 28.5924C10.2693 28.5733 7.64082 27.604 5.55918 25.852C5.55902 25.852 5.55888 25.8519 5.55877 25.8518C5.55866 25.8517 5.55859 25.8515 5.55859 25.8514L5.57207 25.835L9.80137 20.8164C10.7281 21.5979 11.9005 22.0278 13.1128 22.0305C14.325 22.0331 15.4994 21.6085 16.4295 20.8311L20.6242 25.8514Z" fill="#FC8D36"/>
<path d="M24.6674 18.9086V18.9092C24.1912 21.6052 22.7864 24.0494 20.6967 25.818C18.6069 27.5866 15.964 28.568 13.2264 28.5918C13.193 28.5924 13.159 28.5924 13.125 28.5924V22.0299C14.3336 22.0318 15.5041 21.607 16.4303 20.8305L16.4391 20.8234C17.3684 20.0448 17.9933 18.9635 18.2039 17.7695L24.6674 18.9086Z" fill="#E74444"/>
<path d="M24.8441 16.8756C24.8445 17.5577 24.7855 18.2386 24.6678 18.9106V18.9111C24.1899 21.6248 22.7701 24.0829 20.6582 25.8527L16.4395 20.8254C17.3681 20.0462 17.9925 18.9648 18.2032 17.771C18.4138 16.5773 18.1972 15.3474 17.5914 14.2975V14.2969L23.2756 11.0156C24.3063 12.7963 24.8475 14.8181 24.8441 16.8756Z" fill="#B01641"/>
<path d="M24.8437 16.8744C24.8441 17.5566 24.7851 18.2374 24.6674 18.9094V18.91L18.2039 17.7703C18.2555 17.4745 18.2814 17.1747 18.2812 16.8744C18.2826 15.9692 18.0445 15.0797 17.591 14.2963V14.2957C16.9837 13.2465 16.0273 12.4438 14.8887 12.0275L17.134 5.85938C19.3941 6.68231 21.3463 8.18075 22.7256 10.1513C24.1048 12.1219 24.8443 14.4691 24.8437 16.8744Z" fill="#B75382"/>
<path d="M17.591 14.2969V14.2963C17.139 13.5119 16.4881 12.8605 15.704 12.408C14.9199 11.9554 14.0303 11.7177 13.125 11.7188V5.15626C14.4921 5.15487 15.8489 5.39284 17.134 5.85938V5.85997C19.722 6.80541 21.8956 8.63 23.2752 11.015L17.591 14.2969Z" fill="#80588F"/>
<path d="M13.1248 5.15626V11.7188C12.2195 11.718 11.33 11.9558 10.546 12.4083C9.7619 12.8608 9.11097 13.512 8.65879 14.2963L2.97461 11.015C4.00191 9.2322 5.4812 7.7518 7.26327 6.72317C9.04534 5.69454 11.0672 5.15407 13.1248 5.15626Z" fill="#298057"/>
<path d="M17.1332 5.85938V5.85996L14.8879 12.0281C13.7481 11.6154 12.4996 11.6156 11.36 12.0287L9.11523 5.85996C11.7055 4.92188 14.5428 4.92167 17.1332 5.85938Z" fill="#2B70A8"/>
<path d="M27.9816 5.26309L24.5171 3.82812L22.1429 9.55941L21.2878 11.623C21.2124 11.8059 21.1763 12.0027 21.1819 12.2004C21.1874 12.3982 21.2345 12.5926 21.32 12.771L21.0036 13.5349C20.8608 13.8795 20.8608 14.2667 21.0035 14.6113C21.1462 14.9558 21.4199 15.2296 21.7645 15.3724C22.109 15.5152 22.4962 15.5152 22.8408 15.3725C23.1854 15.2298 23.4592 14.9561 23.6019 14.6115L23.9187 13.847C24.1053 13.7815 24.276 13.6774 24.4197 13.5415C24.5634 13.4056 24.6768 13.241 24.7526 13.0584L27.9816 5.26309ZM23.8863 12.7001C23.8548 12.7759 23.8039 12.8422 23.7387 12.8921C23.6735 12.9421 23.5963 12.974 23.5149 12.9848C23.4334 12.9955 23.3561 13.0276 23.2908 13.0776C23.2255 13.1277 23.1746 13.1941 23.1431 13.2701L22.7359 14.2527C22.7131 14.3107 22.6789 14.3635 22.6355 14.4082C22.5921 14.4528 22.5401 14.4883 22.4828 14.5127C22.4255 14.537 22.3639 14.5497 22.3016 14.55C22.2393 14.5502 22.1776 14.5381 22.12 14.5142C22.0625 14.4903 22.0103 14.4553 21.9665 14.411C21.9227 14.3667 21.8881 14.3142 21.8648 14.2564C21.8415 14.1986 21.83 14.1368 21.8309 14.0745C21.8318 14.0122 21.8451 13.9507 21.87 13.8937L22.2767 12.9117C22.3081 12.8357 22.319 12.7527 22.3083 12.6712C22.2975 12.5896 22.2655 12.5123 22.2155 12.447C22.1655 12.3816 22.1335 12.3043 22.1227 12.2227C22.1119 12.1411 22.1228 12.0581 22.1541 11.982L23.8865 12.6996L23.8863 12.7001Z" fill="#A4D4F4"/>
<path d="M27.5064 1.52297C27.851 1.66581 28.1248 1.9397 28.2675 2.28439C28.4101 2.62908 28.41 3.01632 28.2672 3.36094L27.4988 5.2146L24.9001 4.13742L25.6684 2.28375C25.8113 1.93913 26.0852 1.66538 26.4299 1.5227C26.7745 1.38003 27.1618 1.38012 27.5064 1.52297Z" fill="#757C80"/>
<path d="M24.2656 3.22266L28.5969 5.01797L27.8787 6.75047L23.5475 4.95516L24.2656 3.22266Z" fill="#2B70A8"/>
<path d="M13.125 10.3125C11.8271 10.3125 10.5583 10.6974 9.47907 11.4185C8.39988 12.1396 7.55874 13.1645 7.06204 14.3636C6.56534 15.5628 6.43538 16.8823 6.6886 18.1553C6.94181 19.4283 7.56683 20.5976 8.48461 21.5154C9.4024 22.4332 10.5717 23.0582 11.8447 23.3114C13.1177 23.5646 14.4372 23.4347 15.6364 22.938C16.8355 22.4413 17.8604 21.6001 18.5815 20.5209C19.3026 19.4417 19.6875 18.1729 19.6875 16.875C19.6875 15.1345 18.9961 13.4653 17.7654 12.2346C16.5347 11.0039 14.8655 10.3125 13.125 10.3125ZM13.125 20.625C12.3833 20.625 11.6583 20.4051 11.0416 19.993C10.4249 19.581 9.94428 18.9953 9.66045 18.3101C9.37663 17.6248 9.30236 16.8708 9.44706 16.1434C9.59175 15.416 9.9489 14.7478 10.4734 14.2233C10.9978 13.6989 11.666 13.3417 12.3934 13.1971C13.1208 13.0524 13.8748 13.1266 14.5601 13.4105C15.2453 13.6943 15.831 14.1749 16.243 14.7916C16.6551 15.4083 16.875 16.1333 16.875 16.875C16.875 17.8696 16.4799 18.8234 15.7767 19.5266C15.0734 20.2299 14.1196 20.625 13.125 20.625Z" fill="#FAE8D8"/>
<path d="M22.2995 15.4792C22.3539 15.4789 22.4082 15.4754 22.4622 15.4688H22.1328C22.1881 15.4756 22.2438 15.4791 22.2995 15.4792Z" fill="#B75382"/>
<path d="M23.8857 12.7L25.3208 9.23477L23.5889 8.51758L22.1534 11.9817C22.122 12.0578 22.1111 12.1408 22.1219 12.2225C22.1327 12.3041 22.1647 12.3815 22.2147 12.4469C22.2647 12.5122 22.2967 12.5895 22.3075 12.671C22.3182 12.7526 22.3073 12.8355 22.2759 12.9115L21.8692 13.8935C21.8443 13.9506 21.831 14.0121 21.8301 14.0743C21.8292 14.1366 21.8408 14.1985 21.864 14.2562C21.8873 14.314 21.9219 14.3666 21.9657 14.4108C22.0095 14.4551 22.0617 14.4902 22.1193 14.514C22.1768 14.5379 22.2385 14.5501 22.3008 14.5498C22.3631 14.5495 22.4247 14.5369 22.482 14.5125C22.5394 14.4882 22.5913 14.4526 22.6347 14.408C22.6782 14.3634 22.7123 14.3105 22.7351 14.2526L23.1423 13.2699C23.1738 13.1939 23.2247 13.1276 23.29 13.0775C23.3553 13.0274 23.4326 12.9954 23.5141 12.9846C23.5956 12.9739 23.6728 12.942 23.738 12.892C23.8032 12.8421 23.8541 12.7758 23.8857 12.7Z" fill="#B75382"/>
</svg>
