<svg width="21" height="19" viewBox="0 0 21 19" fill="none" xmlns="http://www.w3.org/2000/svg">
<path d="M16.3389 8.70898C16.2314 8.60156 16.1025 8.54785 15.9521 8.54785C15.8018 8.54785 15.6729 8.60156 15.5654 8.70898L11 13.2744V0.845703C11 0.695312 10.9463 0.566406 10.8389 0.458984C10.7314 0.351562 10.6025 0.297852 10.4521 0.297852C10.3018 0.297852 10.1729 0.351562 10.0654 0.458984C9.95801 0.566406 9.9043 0.695312 9.9043 0.845703V13.2744L5.33887 8.70898C5.23145 8.60156 5.10254 8.54785 4.95215 8.54785C4.80176 8.54785 4.67285 8.60156 4.56543 8.70898C4.45801 8.81641 4.4043 8.94889 4.4043 9.10645C4.4043 9.25684 4.45801 9.38574 4.56543 9.49316L10.0654 14.9932C10.1156 15.0433 10.1729 15.0827 10.2373 15.1113C10.3089 15.14 10.3805 15.1543 10.4521 15.1543C10.5238 15.1543 10.5918 15.14 10.6562 15.1113C10.7279 15.0827 10.7887 15.0433 10.8389 14.9932L16.3389 9.49316C16.4463 9.38574 16.5 9.25684 16.5 9.10645C16.5 8.94889 16.4463 8.81641 16.3389 8.70898ZM19.25 19H1.6543C1.19596 19 0.805664 18.8389 0.483398 18.5166C0.161133 18.1943 0 17.804 0 17.3457V15.1543C0 14.9967 0.0537109 14.8643 0.161133 14.7568C0.268555 14.6494 0.397461 14.5957 0.547852 14.5957C0.698242 14.5957 0.827148 14.6494 0.93457 14.7568C1.04199 14.8643 1.0957 14.9967 1.0957 15.1543V17.3457C1.0957 17.5033 1.14941 17.6357 1.25684 17.7432C1.36426 17.8506 1.49674 17.9043 1.6543 17.9043H19.25C19.4004 17.9043 19.5293 17.8506 19.6367 17.7432C19.7441 17.6357 19.7979 17.5033 19.7979 17.3457V15.1543C19.7979 14.9967 19.8516 14.8643 19.959 14.7568C20.0664 14.6494 20.1953 14.5957 20.3457 14.5957C20.5033 14.5957 20.6357 14.6494 20.7432 14.7568C20.8506 14.8643 20.9043 14.9967 20.9043 15.1543V17.3457C20.9043 17.804 20.7432 18.1943 20.4209 18.5166C20.0986 18.8389 19.7083 19 19.25 19Z" fill="#3D64FF"/>
</svg>
