<svg width="22" height="21" viewBox="0 0 22 21" fill="none" xmlns="http://www.w3.org/2000/svg">
<path d="M14.75 17.1406C15.3359 16.5547 14.9062 15.5391 14.0859 15.5391H12.0938V11.5938H16V13.625C16 14.4453 17.0156 14.875 17.6016 14.2891L20.6875 11.2031C21.0781 10.8125 21.0781 10.2266 20.6875 9.875L17.6016 6.75C17.0156 6.16406 16 6.59375 16 7.41406V9.40625H12.0547V5.5H14.0859C14.9062 5.5 15.3359 4.48438 14.75 3.89844L11.625 0.8125C11.2734 0.421875 10.6875 0.421875 10.2969 0.8125L7.21094 3.89844C6.625 4.48438 7.05469 5.5 7.875 5.5H9.90625V9.40625H5.96094V7.41406C5.96094 6.59375 4.94531 6.16406 4.35938 6.75L1.27344 9.83594C0.882812 10.2266 0.882812 10.8125 1.27344 11.1641L4.35938 14.2891C4.94531 14.875 5.96094 14.4453 5.96094 13.625V11.5938H9.90625V15.5391H7.875C7.05469 15.5391 6.625 16.5547 7.21094 17.1406L10.3359 20.2266C10.6875 20.6172 11.2734 20.6172 11.6641 20.2266L14.75 17.1406Z" fill="#6F7287"/>
</svg>
