<svg width="36" height="28" viewBox="0 0 36 28" fill="none" xmlns="http://www.w3.org/2000/svg">
<path d="M18 23.1518C16.2196 23.1515 14.478 22.6319 12.9884 21.6566C11.4989 20.6814 10.3262 19.2929 9.61391 17.6612C8.90164 16.0295 8.68078 14.2255 8.97837 12.4702C9.27596 10.7148 10.0791 9.0844 11.2893 7.77864C11.3968 7.66272 11.5275 7.57076 11.6729 7.50873C11.8182 7.4467 11.9751 7.416 12.1331 7.41864C12.2914 7.42113 12.4473 7.45698 12.5908 7.52386C12.7342 7.59075 12.8619 7.68714 12.9656 7.80676L23.4562 19.833C23.5596 19.9514 23.6371 20.0902 23.6836 20.2403C23.7301 20.3905 23.7446 20.5488 23.7262 20.7049C23.7073 20.862 23.6554 21.0133 23.574 21.149C23.4926 21.2847 23.3834 21.4017 23.2537 21.4924C21.716 22.575 19.8806 23.1547 18 23.1518ZM12.1668 10.3099C11.3751 11.5667 11.0096 13.0453 11.1246 14.5263C11.2395 16.0073 11.8289 17.4118 12.8051 18.5313C13.7813 19.6509 15.0925 20.426 16.544 20.7415C17.9956 21.0571 19.5102 20.8963 20.8631 20.283L12.1668 10.3099ZM25.4362 18.1511C25.2897 18.1503 25.1446 18.1217 25.0087 18.0668C24.8721 18.0106 24.7478 17.9281 24.643 17.824C24.5383 17.7198 24.455 17.596 24.3981 17.4597C24.3412 17.3234 24.3116 17.1771 24.3112 17.0294C24.3108 16.8817 24.3394 16.7353 24.3956 16.5986C24.7332 15.774 24.9053 14.891 24.9018 13.9999C24.9004 12.1699 24.1727 10.4152 22.8787 9.12117C21.5847 7.82714 19.83 7.0995 18 7.09801C17.4308 7.09871 16.8639 7.17052 16.3125 7.31176C16.0231 7.38635 15.7159 7.34292 15.4585 7.19101C15.2011 7.03911 15.0146 6.79118 14.94 6.50176C14.8654 6.21234 14.9088 5.90515 15.0607 5.64775C15.2126 5.39036 15.4606 5.20385 15.75 5.12926C17.1004 4.789 18.5107 4.76104 19.8736 5.04752C21.2365 5.33399 22.5161 5.92735 23.6153 6.78252C24.7145 7.63769 25.6043 8.73216 26.2171 9.98277C26.8299 11.2334 27.1496 12.6072 27.1518 13.9999C27.1553 15.1842 26.9259 16.3577 26.4768 17.4536C26.3921 17.66 26.2479 17.8364 26.0626 17.9606C25.8773 18.0848 25.6593 18.1511 25.4362 18.1511Z" fill="#F53F7B"/>
<path d="M22.0113 12.7662C21.8149 12.765 21.6223 12.7125 21.4526 12.6138C21.2829 12.5151 21.1419 12.3737 21.0438 12.2037C20.7851 11.7632 20.4338 11.3842 20.0142 11.0928C19.5947 10.8015 19.1168 10.6047 18.6138 10.5162C18.327 10.4579 18.0742 10.2902 17.9091 10.0487C17.744 9.80712 17.6794 9.51073 17.7292 9.22239C17.7789 8.93404 17.9391 8.67643 18.1757 8.50422C18.4122 8.332 18.7066 8.25872 18.9963 8.29993C19.8208 8.44157 20.6044 8.76163 21.2923 9.23772C21.9802 9.71381 22.5557 10.3344 22.9788 11.0562C23.0772 11.2267 23.1292 11.4201 23.1295 11.617C23.1298 11.8139 23.0784 12.0074 22.9805 12.1783C22.8825 12.3491 22.7415 12.4912 22.5714 12.5904C22.4013 12.6897 22.2082 12.7425 22.0113 12.7437V12.7662ZM1.85125 15.1231C1.63156 15.1234 1.41658 15.0594 1.23284 14.9389C1.04911 14.8185 0.904658 14.6469 0.817323 14.4453C0.729987 14.2437 0.703588 14.0209 0.741382 13.8045C0.779176 13.5881 0.879509 13.3875 1.03 13.2274C1.21563 13.0362 1.40688 12.8224 1.5925 12.5974C3.42625 10.6231 6.18813 7.65306 10.0188 5.70681C10.1511 5.63489 10.2966 5.59028 10.4465 5.57564C10.5964 5.561 10.7478 5.57662 10.8916 5.62157C11.0354 5.66653 11.1686 5.7399 11.2835 5.83734C11.3984 5.93478 11.4926 6.05431 11.5604 6.18882C11.6282 6.32334 11.6683 6.47011 11.6784 6.62042C11.6884 6.77073 11.6681 6.92152 11.6188 7.06386C11.5694 7.20619 11.492 7.33716 11.3911 7.449C11.2901 7.56084 11.1678 7.65128 11.0313 7.71493C7.54375 9.49806 4.97312 12.2712 3.26875 14.1218L2.6725 14.7687C2.56712 14.8808 2.43986 14.97 2.29861 15.031C2.15735 15.092 2.0051 15.1233 1.85125 15.1231Z" fill="#F53F7B"/>
<path d="M34.1505 15.1252C33.9966 15.1254 33.8444 15.0941 33.7031 15.0331C33.5619 14.9722 33.4346 14.8829 33.3292 14.7708L32.7274 14.1183C29.943 11.0977 25.3136 6.0352 18.0011 6.0352C17.0975 6.03399 16.1957 6.11495 15.3067 6.27707C15.0144 6.33144 14.7125 6.26788 14.4669 6.10029C14.2213 5.9327 14.0521 5.67471 13.9961 5.3827C13.9684 5.23754 13.9695 5.08835 13.9995 4.94363C14.0294 4.79891 14.0876 4.66151 14.1706 4.53928C14.2537 4.41705 14.36 4.31238 14.4835 4.23125C14.607 4.15012 14.7453 4.09412 14.8905 4.06645C15.9165 3.87703 16.9578 3.78288 18.0011 3.7852C26.2755 3.7852 31.5517 9.5002 34.3867 12.5939C34.5892 12.8246 34.7861 13.0327 34.9492 13.2296C35.0985 13.3882 35.1985 13.5868 35.237 13.8012C35.2756 14.0155 35.2511 14.2365 35.1665 14.4372C35.082 14.638 34.9409 14.8098 34.7606 14.9319C34.5802 15.0541 34.3683 15.1212 34.1505 15.1252ZM18.0011 24.2152C9.72674 24.2152 4.45049 18.5002 1.61549 15.4064C1.41299 15.1758 1.21612 14.9677 1.05299 14.7708C0.84861 14.553 0.739123 14.2629 0.748617 13.9644C0.758111 13.6659 0.885808 13.3833 1.10362 13.1789C1.32143 12.9746 1.61151 12.8651 1.91004 12.8746C2.20857 12.8841 2.49111 13.0118 2.69549 13.2296L3.29737 13.8821C6.05924 16.9027 10.6886 21.9652 18.0011 21.9652C19.8636 21.9665 21.71 21.6212 23.4461 20.9471C23.5849 20.8888 23.7339 20.859 23.8844 20.8594C24.0349 20.8597 24.1838 20.8903 24.3222 20.9492C24.4607 21.0082 24.5859 21.0943 24.6905 21.2025C24.7951 21.3107 24.8769 21.4388 24.9311 21.5792C24.9853 21.7196 25.0108 21.8694 25.006 22.0198C25.0013 22.1702 24.9664 22.3182 24.9035 22.4549C24.8406 22.5916 24.7508 22.7142 24.6396 22.8156C24.5284 22.917 24.398 22.9951 24.2561 23.0452C22.2618 23.8201 20.1407 24.2168 18.0011 24.2152Z" fill="#F53F7B"/>
<path d="M27.8881 20.9624C27.649 20.9618 27.4162 20.885 27.2236 20.7432C27.031 20.6014 26.8887 20.4019 26.8172 20.1736C26.7457 19.9454 26.7488 19.7003 26.8261 19.474C26.9034 19.2476 27.0508 19.0518 27.2469 18.9149C29.2634 17.4375 31.1086 15.7394 32.7481 13.8524L33.3106 13.2224C33.515 13.0046 33.7975 12.8769 34.0961 12.8674C34.3946 12.8579 34.6847 12.9674 34.9025 13.1718C35.1203 13.3761 35.248 13.6587 35.2575 13.9572C35.267 14.2557 35.1575 14.5458 34.9531 14.7636C34.7731 14.9493 34.5875 15.1574 34.3906 15.3768C32.6456 17.3826 30.6794 19.1847 28.5294 20.7486C28.3426 20.8839 28.1187 20.9585 27.8881 20.9624ZM27.8937 27.763C27.7326 27.7629 27.5734 27.7282 27.4269 27.6612C27.2804 27.5943 27.1499 27.4966 27.0444 27.3749L5.00563 2.09613C4.89229 1.98826 4.8027 1.85792 4.74259 1.71346C4.68247 1.569 4.65316 1.41359 4.65651 1.25716C4.65986 1.10072 4.69581 0.94671 4.76205 0.804956C4.82829 0.663202 4.92338 0.536826 5.04123 0.433902C5.15908 0.330978 5.29711 0.253769 5.44649 0.20721C5.59587 0.160651 5.75332 0.145764 5.90878 0.163502C6.06424 0.18124 6.21429 0.231212 6.34935 0.310225C6.4844 0.389238 6.60149 0.495555 6.69313 0.622382L28.7431 25.9011C28.8844 26.0641 28.9758 26.2642 29.0065 26.4776C29.0373 26.691 29.0061 26.9088 28.9166 27.1049C28.8271 27.3011 28.6831 27.4674 28.5018 27.5841C28.3204 27.7008 28.1094 27.7629 27.8937 27.763Z" fill="#F53F7B"/>
</svg>
