<svg width="12" height="16" viewBox="0 0 12 16" fill="none" xmlns="http://www.w3.org/2000/svg">
<path d="M12 3.8125C12 3.625 11.9062 3.4375 11.75 3.28125L8.71875 0.25C8.5625 0.09375 8.375 0 8.1875 0H8V4H12V3.8125ZM7.75 5C7.3125 5 7 4.6875 7 4.25V0H0.75C0.3125 0 0 0.34375 0 0.75V15.25C0 15.6875 0.3125 16 0.75 16H11.25C11.6562 16 12 15.6875 12 15.25V5H7.75ZM3.5 5.5C4.34375 5.5 5 6.1875 5 7C5 7.84375 4.34375 8.5 3.5 8.5C2.6875 8.5 2 7.84375 2 7C2 6.1875 2.6875 5.5 3.5 5.5ZM10 13H2L2.03125 11.5L3.25 10.25C3.40625 10.125 3.625 10.125 3.78125 10.2812L5 11.5L8.25 8.28125C8.375 8.125 8.625 8.125 8.78125 8.28125L10 9.5V13Z" fill="#3D64FF"/>
</svg>
