<svg width="23" height="22" viewBox="0 0 23 22" fill="none" xmlns="http://www.w3.org/2000/svg">
<path d="M11.2704 8.25065H13.1871L11.0788 17.4173H9.16211L11.2704 8.25065ZM12.8804 4.58398C12.6909 4.58398 12.5056 4.63775 12.348 4.73847C12.1904 4.8392 12.0676 4.98236 11.9951 5.14986C11.9225 5.31736 11.9035 5.50167 11.9405 5.67948C11.9775 5.8573 12.0688 6.02063 12.2028 6.14883C12.3368 6.27703 12.5076 6.36433 12.6935 6.3997C12.8794 6.43507 13.0721 6.41692 13.2472 6.34754C13.4223 6.27816 13.572 6.16067 13.6773 6.00992C13.7826 5.85918 13.8388 5.68195 13.8388 5.50065C13.8388 5.25754 13.7378 5.02438 13.5581 4.85247C13.3784 4.68056 13.1346 4.58398 12.8804 4.58398Z" fill="#000833"/>
</svg>
