<svg width="23" height="22" viewBox="0 0 23 22" fill="none" xmlns="http://www.w3.org/2000/svg">
<path d="M7.1875 5.5V7.33333H20.6042V5.5H7.1875ZM7.1875 16.5H20.6042V14.6667H7.1875V16.5ZM7.1875 11.9167H20.6042V10.0833H7.1875V11.9167Z" fill="black"/>
<path d="M4.2168 7.88281C5.01071 7.88281 5.6543 7.2672 5.6543 6.50781C5.6543 5.74842 5.01071 5.13281 4.2168 5.13281C3.42289 5.13281 2.7793 5.74842 2.7793 6.50781C2.7793 7.2672 3.42289 7.88281 4.2168 7.88281Z" fill="black"/>
<path d="M4.2168 12.375C5.01071 12.375 5.6543 11.7594 5.6543 11C5.6543 10.2406 5.01071 9.625 4.2168 9.625C3.42289 9.625 2.7793 10.2406 2.7793 11C2.7793 11.7594 3.42289 12.375 4.2168 12.375Z" fill="black"/>
<path d="M4.2168 16.959C5.01071 16.959 5.6543 16.3434 5.6543 15.584C5.6543 14.8246 5.01071 14.209 4.2168 14.209C3.42289 14.209 2.7793 14.8246 2.7793 15.584C2.7793 16.3434 3.42289 16.959 4.2168 16.959Z" fill="black"/>
</svg>
