<svg width="26" height="26" viewBox="0 0 26 26" fill="none" xmlns="http://www.w3.org/2000/svg">
<circle cx="13" cy="13" r="12" fill="white" stroke="#F53F7B" stroke-width="2"/>
<path d="M16.375 19.2266C16.9023 18.6992 16.5156 17.7852 15.7773 17.7852H13.9844V14.2344H17.5V16.0625C17.5 16.8008 18.4141 17.1875 18.9414 16.6602L21.7188 13.8828C22.0703 13.5312 22.0703 13.0039 21.7188 12.6875L18.9414 9.875C18.4141 9.34766 17.5 9.73438 17.5 10.4727V12.2656H13.9492V8.75H15.7773C16.5156 8.75 16.9023 7.83594 16.375 7.30859L13.5625 4.53125C13.2461 4.17969 12.7188 4.17969 12.3672 4.53125L9.58984 7.30859C9.0625 7.83594 9.44922 8.75 10.1875 8.75H12.0156V12.2656H8.46484V10.4727C8.46484 9.73438 7.55078 9.34766 7.02344 9.875L4.24609 12.6523C3.89453 13.0039 3.89453 13.5312 4.24609 13.8477L7.02344 16.6602C7.55078 17.1875 8.46484 16.8008 8.46484 16.0625V14.2344H12.0156V17.7852H10.1875C9.44922 17.7852 9.0625 18.6992 9.58984 19.2266L12.4023 22.0039C12.7188 22.3555 13.2461 22.3555 13.5977 22.0039L16.375 19.2266Z" fill="#6F7287"/>
<line x1="5.29289" y1="21.2929" x2="21.2929" y2="5.29289" stroke="#F53F7B" stroke-width="2"/>
</svg>
