<svg width="174" height="30" viewBox="0 0 174 30" fill="none" xmlns="http://www.w3.org/2000/svg">
<path d="M10.9081 16.3621H4.36231V23.1727H0V0.0325233C3.63758 0.0325233 7.27516 0 10.9081 0C22.2157 0 22.2482 16.3621 10.9081 16.3621ZM4.36231 12.3622H10.9081C16.4969 12.3622 16.4643 4.16255 10.9081 4.16255H4.36231V12.3622Z" fill="#49176D"/>
<path d="M26.1828 6.875V15.4045C26.1828 17.8853 27.5394 19.7668 30.1178 19.7668C32.5986 19.7668 34.2849 17.6855 34.2849 15.2047V6.875H38.2849V23.2046H34.6798L34.415 20.9886C32.7286 22.6425 31.177 23.4369 28.8959 23.4369C24.9936 23.4369 22.1504 20.4962 22.1504 15.437V6.875H26.1828Z" fill="#49176D"/>
<path d="M45.5879 6.87468L45.8852 8.76083C47.1396 6.7446 48.826 6.44727 50.4798 6.44727C52.1662 6.44727 53.7876 7.10696 54.6795 8.00358L52.8631 11.5064C52.0361 10.8142 51.2743 10.4472 49.9549 10.4472C47.8411 10.4472 45.8899 11.5715 45.8899 14.5819V23.1764H41.8574V6.87931H45.5879V6.87468Z" fill="#49176D"/>
<path d="M56.1992 29.9837V6.87604H59.9669L60.2317 9.12455C61.486 7.30808 63.6695 6.51367 65.5231 6.51367C70.5498 6.51367 73.8854 10.2488 73.8854 15.0432C73.8854 19.805 70.875 23.5727 65.6532 23.5727C63.9343 23.5727 61.3885 23.043 60.2317 21.2591V29.9837H56.1992ZM69.8529 15.0432C69.8529 12.4973 68.134 10.4161 65.2258 10.4161C62.3176 10.4161 60.5987 12.4973 60.5987 15.0432C60.5987 17.589 62.4848 19.6703 65.2258 19.6703C67.9668 19.6703 69.8529 17.5844 69.8529 15.0432Z" fill="#49176D"/>
<path d="M80.8632 0.0644531V23.1721H76.8633V0.0644531H80.8632Z" fill="#49176D"/>
<path d="M87.8359 16.4647C88.1007 18.4809 89.8521 19.935 92.6953 19.935C94.1819 19.935 96.1331 19.3729 97.0576 18.4159L99.636 20.9617C97.9171 22.7457 95.1064 23.6051 92.6256 23.6051C87.0043 23.6051 83.6641 20.1348 83.6641 14.9084C83.6641 9.95144 87.0368 6.37891 92.3283 6.37891C97.7823 6.37891 101.188 9.75168 100.56 16.4647H87.8359ZM96.6952 13.1244C96.4304 11.0107 94.7766 9.95145 92.463 9.95145C90.2795 9.95145 88.4956 11.0107 87.9009 13.1244H96.6952Z" fill="#49176D"/>
<path d="M105.661 15.1735V23.1734H103.877V0.0332031C107.25 0.0332031 110.655 0.0332031 114.028 0.0332031C124.076 0.0332031 124.076 15.1735 114.028 15.1735H105.661ZM105.661 1.68707V13.5568H114.023C121.726 13.5568 121.726 1.68707 114.023 1.68707H105.661Z" fill="#231F20"/>
<path d="M140.212 6.84234C140.212 12.2964 140.212 17.7179 140.212 23.172H138.59V19.7016C137.001 22.2475 134.558 23.4368 131.914 23.4368C127.352 23.4368 123.617 19.9989 123.617 15.0048C123.617 10.0107 127.352 6.64258 131.914 6.64258C134.558 6.64258 137.238 7.86439 138.59 10.4102V6.83769H140.212V6.84234ZM125.234 15.0048C125.234 19.1023 128.207 21.8479 131.91 21.8479C141.001 21.8479 141.001 8.19424 131.91 8.19424C128.212 8.19424 125.234 10.9073 125.234 15.0048Z" fill="#231F20"/>
<path d="M155.817 9.81673C154.164 8.36263 152.547 8.09783 150.726 8.09783C148.18 8.06531 145.732 9.02232 145.801 11.1082C145.866 13.2917 148.71 13.7191 150.758 14.0815C153.667 14.5786 157.666 15.071 157.504 18.8758C157.406 22.4809 153.671 23.4379 150.791 23.4379C147.91 23.4379 145.072 22.3462 143.65 20.1627L144.84 19.1035C146.196 21.0547 148.64 21.8816 150.823 21.8816C152.807 21.8816 155.817 21.352 155.915 18.7736C155.98 16.4276 153.272 15.963 150.591 15.5356C147.418 15.006 144.278 14.4113 144.245 11.1408C144.213 7.93523 147.418 6.54616 150.726 6.57868C153.104 6.57868 155.19 7.23838 156.807 8.76216L155.817 9.81673Z" fill="#231F20"/>
<path d="M172.31 9.81673C170.656 8.36263 169.039 8.09783 167.218 8.09783C164.672 8.06531 162.224 9.02232 162.294 11.1082C162.359 13.2917 165.202 13.7191 167.25 14.0815C170.159 14.5786 174.159 15.071 173.996 18.8758C173.898 22.4809 170.163 23.4379 167.283 23.4379C164.407 23.4379 161.564 22.3462 160.143 20.1627L161.332 19.1035C162.688 21.0547 165.132 21.8816 167.316 21.8816C169.299 21.8816 172.31 21.352 172.407 18.7736C172.472 16.4276 169.764 15.963 167.083 15.5356C163.91 15.006 160.77 14.4113 160.737 11.1408C160.705 7.93523 163.91 6.54616 167.218 6.57868C169.597 6.57868 171.682 7.23838 173.299 8.76216L172.31 9.81673Z" fill="#231F20"/>
</svg>
