<svg width="12" height="16" viewBox="0 0 12 16" fill="none" xmlns="http://www.w3.org/2000/svg">
<path d="M5.65625 8.03125C5.84375 7.71875 5.875 6.5625 5.59375 6.5625C5.53125 6.5625 5.5 7.53125 5.65625 8.03125ZM5.625 9.5C5.375 10.125 5.0625 10.8438 4.71875 11.4375C5.3125 11.2188 5.9375 10.9062 6.6875 10.7812C6.3125 10.4688 5.90625 10.0312 5.625 9.5ZM2.6875 13.4062C2.6875 13.4062 3.09375 13.2188 3.78125 12.125C3.5625 12.3438 2.84375 12.9062 2.6875 13.4062ZM7.75 5C7.3125 5 7 4.6875 7 4.25V0H0.75C0.3125 0 0 0.34375 0 0.75V15.25C0 15.6875 0.3125 16 0.75 16H11.25C11.6562 16 12 15.6875 12 15.25V5H7.75ZM7.5 10.375C8.09375 10.3125 9.34375 10.1875 9.78125 10.5938C10.1562 10.9688 10.0938 11.9688 9.15625 11.9688C8.65625 11.9688 7.84375 11.7188 7.15625 11.3438C6.40625 11.4688 5.5 11.8125 4.6875 12.0938C3.90625 13.4375 3.34375 14 2.78125 14C2.625 14 2.28125 13.9062 2.125 13.6875C1.53125 12.9688 2.96875 12 3.8125 11.5625C3.8125 11.5625 3.8125 11.5625 3.84375 11.5625C4.21875 10.9062 4.75 9.75 5.09375 8.875C4.84375 7.875 4.6875 7.0625 4.84375 6.46875C5.03125 5.875 6.1875 5.78125 6.34375 6.6875C6.5 7.25 6.28125 8.125 6.15625 8.6875C6.4375 9.46875 6.875 10 7.5 10.375ZM11.7812 3.28125L8.71875 0.21875C8.5625 0.09375 8.375 0 8.1875 0H8V4H12V3.8125C12 3.625 11.9062 3.4375 11.7812 3.28125ZM9.4375 11.2812C9.59375 11.1875 9.375 10.9062 8.125 11C9.28125 11.5 9.4375 11.2812 9.4375 11.2812Z" fill="#3D64FF"/>
</svg>
