<svg width="23" height="19" viewBox="0 0 23 19" fill="none" xmlns="http://www.w3.org/2000/svg">
<path d="M0.00465584 12.4842C0.09268 12.9354 0.142197 13.3975 0.268732 13.8376C0.796877 15.6971 1.93569 17.0725 3.63566 17.9748C4.65344 18.5139 5.74824 18.723 6.89255 18.723C11.3268 18.723 15.7665 18.723 20.2007 18.723C20.7509 18.723 21.103 18.4919 21.2295 18.0408C21.3835 17.4961 20.9984 16.9295 20.4318 16.8855C20.3272 16.8745 20.2282 16.88 20.1237 16.88C15.6785 16.88 11.2387 16.8855 6.79352 16.88C5.11006 16.88 3.75119 16.1978 2.74441 14.8389C1.44055 13.0784 1.57809 10.4652 3.047 8.83675C4.05377 7.72544 5.30812 7.18079 6.79903 7.18079C10.9637 7.18079 15.1283 7.18079 19.2985 7.18079C19.3645 7.18079 19.425 7.18629 19.5405 7.19179C19.4305 7.31833 19.348 7.41735 19.2655 7.51088C18.2697 8.65519 17.2684 9.79401 16.2781 10.9438C15.904 11.3784 15.9095 11.9066 16.2891 12.2642C16.6797 12.6383 17.2574 12.6053 17.648 12.1652C18.0661 11.6975 18.4787 11.2134 18.8913 10.7403C20.0082 9.45842 21.1305 8.18207 22.2473 6.90021C22.5884 6.5096 22.5939 6.01447 22.2528 5.62386C20.7234 3.87438 19.1994 2.1249 17.67 0.37542C17.4004 0.0673349 17.0703 -0.0757047 16.6687 0.039827C16.3001 0.144356 16.0746 0.408429 16.0141 0.788033C15.9645 1.10162 16.0856 1.36019 16.2836 1.59125C17.1639 2.60353 18.0441 3.61031 18.9299 4.62259C19.1279 4.84815 19.3205 5.07371 19.5515 5.34329C19.4195 5.34329 19.337 5.34329 19.2489 5.34329C15.1833 5.34329 11.1232 5.34879 7.0576 5.33778C6.06732 5.33778 5.09906 5.44231 4.18031 5.83292C2.43633 6.56462 1.19849 7.80796 0.477789 9.56294C0.230221 10.1681 0.0816784 10.8063 0.0321636 11.461C0.0266628 11.5105 0.0101585 11.56 -0.000843048 11.6095C0.00465775 11.8956 0.00465584 12.1927 0.00465584 12.4842Z" fill="#BDBDBD"/>
</svg>
