<svg width="16" height="13" viewBox="0 0 16 13" fill="none" xmlns="http://www.w3.org/2000/svg">
<path d="M14.5859 10.8359L8.96094 1.0625C8.53906 0.335938 7.4375 0.3125 7.01562 1.0625L1.39062 10.8359C0.96875 11.5625 1.50781 12.5 2.375 12.5H13.6016C14.4688 12.5 15.0078 11.5859 14.5859 10.8359ZM8 8.79688C8.58594 8.79688 9.07812 9.28906 9.07812 9.875C9.07812 10.4844 8.58594 10.9531 8 10.9531C7.39062 10.9531 6.92188 10.4844 6.92188 9.875C6.92188 9.28906 7.39062 8.79688 8 8.79688ZM6.96875 4.92969C6.94531 4.76562 7.08594 4.625 7.25 4.625H8.72656C8.89062 4.625 9.03125 4.76562 9.00781 4.92969L8.84375 8.11719C8.82031 8.28125 8.70312 8.375 8.5625 8.375H7.41406C7.27344 8.375 7.15625 8.28125 7.13281 8.11719L6.96875 4.92969Z" fill="white"/>
</svg>
