<svg width="22" height="22" viewBox="0 0 22 22" fill="none" xmlns="http://www.w3.org/2000/svg">
<g clip-path="url(#clip0)">
<path d="M21.8602 12.6683C21.8081 13.012 21.5711 13.2987 21.244 13.4148L19.5108 14.031C19.4083 14.3214 19.292 14.6037 19.1631 14.8768L19.9519 16.5366C20.1007 16.8496 20.0654 17.2198 19.8598 17.4997C19.1951 18.4038 18.4008 19.1981 17.4991 19.8598C17.2189 20.0655 16.85 20.1004 16.5364 19.9512L14.8776 19.1631C14.6045 19.292 14.3218 19.408 14.0312 19.5106L13.4147 21.2439C13.2986 21.5704 13.0127 21.8068 12.6697 21.8596C11.4514 22.0468 10.5496 22.0468 9.32937 21.8596C8.98684 21.8068 8.70048 21.5704 8.58445 21.2439L7.96794 19.5106C7.6773 19.408 7.39461 19.292 7.12177 19.1631L5.46238 19.9512C5.14938 20.1003 4.77983 20.0653 4.49992 19.8598C3.59819 19.1981 2.80391 18.4038 2.13917 17.4997C1.9335 17.2198 1.89827 16.8497 2.04713 16.5366L2.83585 14.8768C2.70695 14.6042 2.59092 14.3213 2.48814 14.031L0.754763 13.4141C0.427884 13.2981 0.191279 13.0115 0.138756 12.6683C0.0441899 12.0471 0 11.5175 0 10.9993C0 10.4819 0.0441899 9.95153 0.138756 9.33035C0.1909 8.98668 0.427884 8.69995 0.755016 8.58392L2.48814 7.96766C2.59092 7.67676 2.70733 7.39433 2.83585 7.12123L2.04713 5.46209C1.89827 5.1491 1.93362 4.77892 2.13892 4.49964C2.80278 3.59614 3.59706 2.80186 4.49992 2.13889C4.77983 1.93321 5.14938 1.89761 5.46263 2.04748L7.12139 2.83557C7.39448 2.70666 7.67717 2.59063 7.96782 2.48811L8.58433 0.754732C8.70036 0.428232 8.98633 0.191881 9.32924 0.139105C9.93881 0.0451698 10.485 -0.000282288 10.9994 -0.000282288C11.5137 -0.000282288 12.0601 0.0451698 12.6695 0.139105C13.0123 0.191881 13.2984 0.428232 13.4144 0.754732L14.0309 2.48811C14.3216 2.59063 14.6043 2.70666 14.8773 2.83557L16.5361 2.04748C16.8497 1.89774 17.2193 1.93334 17.4992 2.13889C18.4031 2.803 19.1974 3.59728 19.8599 4.49964C20.0652 4.77892 20.1006 5.1491 19.9517 5.46209L19.163 7.12123C19.2919 7.39433 19.4082 7.67739 19.5107 7.96766L21.2438 8.58392C21.571 8.69995 21.808 8.98655 21.8601 9.33035C21.9547 9.95153 21.9989 10.4818 21.9989 10.9993C21.9989 11.5169 21.9548 12.0473 21.8602 12.6683ZM20.0679 10.1672L18.442 9.58892C18.1578 9.4883 17.9392 9.2575 17.8536 8.96774C17.7084 8.47673 17.5173 8.0121 17.2849 7.58611C17.1408 7.32097 17.1318 7.00293 17.2613 6.73047L17.9988 5.1794C17.6425 4.75152 17.2484 4.35684 16.8199 4.00092L15.2691 4.7375C14.9963 4.86831 14.6792 4.85783 14.4137 4.71415C13.9871 4.48209 13.5222 4.29119 13.0308 4.14574C12.7417 4.06039 12.5109 3.84196 12.41 3.55776L11.8315 1.93119C11.241 1.8711 10.758 1.8711 10.1675 1.93119L9.58895 3.55776C9.48795 3.84133 9.25715 4.06052 8.96815 4.14574C8.47651 4.29119 8.01125 4.48209 7.58526 4.71415C7.31974 4.85896 7.00208 4.86818 6.72987 4.7375L5.17905 4.00029C4.75092 4.35697 4.35687 4.75101 4.0002 5.1794L4.73766 6.73047C4.8672 7.00306 4.85824 7.32097 4.71405 7.58611C4.48237 8.01084 4.29109 8.4761 4.14539 8.96837C4.05979 9.2575 3.84099 9.4883 3.55703 9.58892L1.9311 10.1672C1.90042 10.463 1.88565 10.7356 1.88565 10.9995C1.88565 11.2633 1.90042 11.5353 1.9311 11.8311L3.55741 12.4099C3.84124 12.5105 4.05979 12.7413 4.14539 13.0304C4.29084 13.5214 4.48212 13.9867 4.71405 14.4133C4.85824 14.6778 4.8672 14.9965 4.73766 15.2683L4.0002 16.8194C4.35712 17.2478 4.75117 17.6425 5.17905 17.9985L6.7305 17.2613C7.00208 17.1305 7.321 17.141 7.58589 17.2847C8.01163 17.5167 8.47651 17.7076 8.96815 17.8531C9.25728 17.9384 9.48807 18.1575 9.58895 18.441L10.1675 20.0676C10.7524 20.1283 11.2364 20.1283 11.8315 20.0676L12.41 18.441C12.511 18.1575 12.7418 17.9383 13.0308 17.8531C13.5225 17.7076 13.9877 17.5167 14.4137 17.2847C14.6792 17.1398 14.9963 17.1306 15.2691 17.2613L16.8199 17.9985C17.2478 17.6425 17.6419 17.2478 17.9988 16.8194L17.2613 15.2683C17.1318 14.9964 17.1408 14.6778 17.2849 14.4133C17.5176 13.9854 17.7088 13.5208 17.8536 13.0311C17.9392 12.7413 18.1578 12.5105 18.442 12.4099L20.0679 11.8316C20.0986 11.5358 20.1133 11.2632 20.1133 10.9993C20.1133 10.7355 20.0986 10.463 20.0679 10.1672Z" fill="#6F7287"/>
<path d="M10.9996 15.5859C8.59288 15.5859 6.63477 13.6279 6.63477 11.2211C6.63477 8.81428 8.59276 6.8563 10.9996 6.8563C13.4064 6.8563 15.3644 8.81428 15.3644 11.2211C15.3644 13.6279 13.4063 15.5859 10.9996 15.5859ZM10.9996 8.74194C9.63261 8.74194 8.52041 9.85413 8.52041 11.2211C8.52041 12.5881 9.63261 13.7003 10.9996 13.7003C12.3666 13.7003 13.4788 12.5881 13.4788 11.2211C13.4788 9.85413 12.3666 8.74194 10.9996 8.74194Z" fill="#6F7287"/>
</g>
<defs>
<clipPath id="clip0">
<rect width="22" height="22" fill="white" transform="matrix(1 0 0 -1 0 22)"/>
</clipPath>
</defs>
</svg>
