<svg width="22" height="22" viewBox="0 0 22 22" fill="none" xmlns="http://www.w3.org/2000/svg">
<path d="M17.4173 18.334V20.1673H4.58398V18.334H17.4173ZM14.6673 12.1144C14.6371 12.7194 14.4575 13.3075 14.1446 13.8261C13.8316 14.3447 13.3951 14.7777 12.8739 15.0865C12.3527 15.3952 11.7632 15.5699 11.158 15.5952C10.5528 15.6204 9.95071 15.4953 9.40565 15.2311C8.7774 14.9593 8.24461 14.5061 7.87552 13.9296C7.50644 13.3531 7.31787 12.6796 7.33398 11.9952V4.58857H5.50065V12.1144C5.53166 12.9774 5.76543 13.8209 6.18303 14.5767C6.60064 15.3325 7.19034 15.9794 7.9044 16.465C8.61846 16.9505 9.43682 17.2611 10.2932 17.3716C11.1497 17.4822 12.0201 17.3895 12.834 17.1011C13.9167 16.7402 14.856 16.0434 15.5154 15.1119C16.1749 14.1805 16.52 13.063 16.5007 11.9219V4.58857H14.6673V12.1144ZM14.6673 4.58398H16.5007H14.6673ZM7.33398 4.58398H5.50065H7.33398Z" fill="#000833"/>
</svg>
