<svg width="23" height="19" viewBox="0 0 23 19" fill="none" xmlns="http://www.w3.org/2000/svg">
<path d="M22.5012 12.4842C22.4132 12.9354 22.3637 13.3975 22.2371 13.8376C21.709 15.6971 20.5702 17.0725 18.8702 17.9748C17.8524 18.5139 16.7576 18.723 15.6133 18.723C11.1791 18.723 6.73937 18.723 2.30515 18.723C1.755 18.723 1.4029 18.4919 1.27637 18.0408C1.12233 17.4961 1.50743 16.9295 2.07409 16.8855C2.17862 16.8745 2.27764 16.88 2.38217 16.88C6.82739 16.88 11.2671 16.8855 15.7123 16.88C17.3958 16.88 18.7547 16.1978 19.7614 14.8389C21.0653 13.0784 20.9278 10.4652 19.4589 8.83675C18.4521 7.72544 17.1977 7.18079 15.7068 7.18079C11.5422 7.18079 7.37754 7.18079 3.2074 7.18079C3.14138 7.18079 3.08086 7.18629 2.96533 7.19179C3.07536 7.31833 3.15788 7.41735 3.24041 7.51088C4.23618 8.65519 5.23746 9.79401 6.22773 10.9438C6.60183 11.3784 6.59633 11.9066 6.21672 12.2642C5.82612 12.6383 5.24846 12.6053 4.85785 12.1652C4.43974 11.6975 4.02712 11.2134 3.61451 10.7403C2.4977 9.45842 1.37539 8.18207 0.258588 6.90021C-0.0825059 6.5096 -0.0880077 6.01447 0.253086 5.62386C1.78251 3.87438 3.30643 2.1249 4.83585 0.37542C5.10542 0.0673349 5.43551 -0.0757047 5.83712 0.039827C6.20572 0.144356 6.43128 0.408429 6.4918 0.788033C6.54131 1.10162 6.42028 1.36019 6.22223 1.59125C5.34198 2.60353 4.46174 3.61031 3.576 4.62259C3.37794 4.84815 3.18539 5.07371 2.95433 5.34329C3.08637 5.34329 3.16889 5.34329 3.25691 5.34329C7.32253 5.34329 11.3826 5.34879 15.4483 5.33778C16.4385 5.33778 17.4068 5.44231 18.3256 5.83292C20.0695 6.56462 21.3074 7.80796 22.0281 9.56294C22.2756 10.1681 22.4242 10.8063 22.4737 11.461C22.4792 11.5105 22.4957 11.56 22.5067 11.6095C22.5012 11.8956 22.5012 12.1927 22.5012 12.4842Z" fill="#BDBDBD"/>
</svg>
