<svg width="66" height="66" viewBox="0 0 66 66" fill="none" xmlns="http://www.w3.org/2000/svg">
<g clip-path="url(#clip0)">
<path d="M49.2377 37.59C48.9972 37.3569 48.6754 37.2266 48.3405 37.2266C48.0056 37.2266 47.6838 37.3569 47.4433 37.59L42.5257 42.3565C42.4041 42.4743 42.307 42.6149 42.2398 42.7703C42.1725 42.9256 42.1366 43.0927 42.1339 43.262C42.1313 43.4312 42.162 43.5994 42.2244 43.7567C42.2867 43.9141 42.3794 44.0577 42.4972 44.1793C42.6151 44.3008 42.7557 44.398 42.911 44.4652C43.0664 44.5324 43.2335 44.5683 43.4028 44.571C43.572 44.5736 43.7402 44.5429 43.8975 44.4806C44.0549 44.4182 44.1985 44.3255 44.32 44.2077L47.0514 41.5603V50.4317C47.0514 50.7735 47.1873 51.1014 47.429 51.3432C47.6707 51.5849 47.9986 51.7207 48.3405 51.7207C48.6824 51.7207 49.0103 51.5849 49.252 51.3432C49.4938 51.1014 49.6296 50.7735 49.6296 50.4317V41.5603L52.361 44.2078C52.6064 44.4458 52.9364 44.5764 53.2782 44.5711C53.6201 44.5658 53.9458 44.4249 54.1838 44.1794C54.4217 43.9339 54.5524 43.6039 54.5471 43.2621C54.5417 42.9203 54.4008 42.5945 54.1553 42.3566L49.2377 37.59Z" fill="#DDDDDD"/>
<path d="M60.1992 31.2607V9.02344C60.1992 6.18028 57.8446 3.86719 55.0015 3.86719H5.15625C3.7892 3.86872 2.47858 4.41246 1.51193 5.37911C0.545275 6.34577 0.00153534 7.65639 0 9.02344L0 43.1722C0.00111916 44.5405 0.544364 45.8525 1.51078 46.821C2.4772 47.7896 3.78803 48.3357 5.15625 48.3398H30.9795C32.7705 56.2031 39.8429 62.1385 48.2705 62.1385C58.0466 62.1385 66.0209 54.1823 66.0209 44.4061C66.0208 39.1994 63.6797 34.5072 60.1992 31.2607ZM5.15625 6.44531H55.0015C55.6893 6.44449 56.3498 6.71454 56.8401 7.19704C57.3304 7.67953 57.6109 8.33565 57.6211 9.02344V29.3208C54.8184 27.5866 51.587 26.6698 48.2912 26.6737C47.2941 26.6737 46.2988 26.7572 45.3156 26.9231C43.9086 26.055 42.2658 25.6474 40.6162 25.7569C38.9666 25.8665 37.3922 26.4878 36.1123 27.5342L27.0604 35.0882C26.2358 35.7718 25.2233 36.1893 24.1566 36.2854C23.0898 36.3815 22.0189 36.1518 21.0855 35.6266L2.57812 25.2558V9.02344C2.57894 8.33993 2.85083 7.68465 3.33414 7.20133C3.81746 6.71802 4.47274 6.44613 5.15625 6.44531ZM5.15625 45.7617C4.47157 45.7583 3.81608 45.484 3.333 44.9988C2.84992 44.5136 2.57853 43.8569 2.57812 43.1722V28.2111L19.8258 37.8769C21.2127 38.6575 22.804 38.9986 24.3891 38.8551C25.9741 38.7116 27.4783 38.0903 28.7025 37.0733L37.7517 29.5194C38.6181 28.8091 39.6868 28.3908 40.8051 28.3243C37.7411 29.7508 35.1476 32.022 33.3294 34.8712C31.5112 37.7203 30.5437 41.0291 30.5405 44.409C30.5405 44.8621 30.5577 45.2461 30.592 45.7617H5.15625ZM48.2705 59.5547C45.2738 59.5547 42.3444 58.6661 39.8527 57.0013C37.361 55.3364 35.419 52.97 34.2722 50.2015C33.1254 47.4329 32.8254 44.3864 33.41 41.4473C33.9946 38.5082 35.4376 35.8084 37.5566 33.6894C39.6756 31.5705 42.3754 30.1274 45.3145 29.5428C48.2536 28.9582 51.3001 29.2582 54.0687 30.405C56.8372 31.5518 59.2036 33.4939 60.8684 35.9855C62.5333 38.4772 63.4219 41.4066 63.4219 44.4033C63.4173 48.4203 61.8195 52.2715 58.9791 55.1119C56.1386 57.9523 52.2875 59.5501 48.2705 59.5547Z" fill="#DDDDDD"/>
<path d="M21.482 26.5675C26.1201 26.5675 29.8936 22.9347 29.8936 18.4694C29.8936 14.0041 26.1201 10.3711 21.482 10.3711C16.8438 10.3711 13.0703 14.0041 13.0703 18.4694C13.0703 22.9347 16.8438 26.5675 21.482 26.5675ZM21.482 12.9492C24.6986 12.9492 27.3155 15.4256 27.3155 18.4694C27.3155 21.5131 24.6987 23.9894 21.482 23.9894C18.2652 23.9894 15.6484 21.5131 15.6484 18.4694C15.6484 15.4256 18.2654 12.9492 21.482 12.9492Z" fill="#DDDDDD"/>
</g>
<defs>
<clipPath id="clip0">
<rect width="66" height="66" fill="white"/>
</clipPath>
</defs>
</svg>
