<svg width="30" height="30" viewBox="0 0 30 30" fill="none" xmlns="http://www.w3.org/2000/svg">
<path d="M29.626 27.859L21.097 19.33C22.7491 17.2893 23.7438 14.6962 23.7438 11.8719C23.7438 5.32613 18.4177 0 11.8719 0C5.32607 0 0 5.32607 0 11.8719C0 18.4177 5.32613 23.7438 11.8719 23.7438C14.6962 23.7438 17.2893 22.7491 19.33 21.097L27.859 29.626C28.1027 29.8697 28.4226 29.9922 28.7425 29.9922C29.0625 29.9922 29.3824 29.8697 29.6261 29.626C30.1147 29.1374 30.1147 28.3476 29.626 27.859ZM11.8719 21.2444C6.70325 21.2444 2.49937 17.0405 2.49937 11.8719C2.49937 6.7032 6.70325 2.49931 11.8719 2.49931C17.0406 2.49931 21.2445 6.7032 21.2445 11.8719C21.2445 17.0405 17.0405 21.2444 11.8719 21.2444Z" fill="#D2D2D2"/>
<line x1="8" y1="12" x2="16" y2="12" stroke="#F53F7B" stroke-width="2" stroke-linecap="round"/>
</svg>
